<?xml version="1.0" encoding="utf-8" ?>
<svg xmlns="http://www.w3.org/2000/svg" xmlns:xlink="http://www.w3.org/1999/xlink" width="1024" height="1024">
	<path fill="#102638" d="M0 0L0.502282 0C-0.178224 23.6981 0.15031 47.6187 0.274118 71.3403C0.318543 79.852 0.922047 88.4616 0.612482 96.955L0 96.769L0 0Z"/>
	<path fill="#102638" d="M0.502282 0L61.6317 0L62.6334 0.500672C61.2939 35.1875 46.803 64.493 21.3403 88.0082C16.5017 92.4767 6.82874 101.071 0.595807 102.595L0.612482 96.955C0.922047 88.4616 0.318543 79.852 0.274118 71.3403C0.15031 47.6187 -0.178224 23.6981 0.502282 0Z"/>
	<path fill="#374A58" d="M61.6317 0L75.457 0L75.3489 0.496775L62.6334 0.500672L61.6317 0Z"/>
	<path fill="#29444D" d="M75.457 0L171.943 0L172.143 0.612088L171.912 0.875862C166.795 -0.246841 154.36 0.54492 148.463 0.51053C124.105 0.368488 99.6949 0.924485 75.3489 0.496775L75.457 0Z"/>
	<path fill="#4E696D" d="M171.943 0L195.182 0L194.903 0.562431C187.416 1.03527 179.659 0.617732 172.143 0.612088L171.943 0Z"/>
	<path fill="#374A58" d="M195.182 0L217.342 0L217.386 0.349034L216.841 0.529005L194.903 0.562431L195.182 0Z"/>
	<path fill="#374A58" d="M217.342 0L247.231 0L247.043 0.566363L246.371 0.518005C236.745 0.288899 226.981 1.01614 217.386 0.349034L217.342 0Z"/>
	<path fill="#29444D" d="M247.231 0L749.47 0C749.379 2.18449 749.44 4.5018 749.065 6.6538C748.923 4.65347 748.947 2.6268 748.908 0.621104C727.738 0.501031 706.568 0.491965 685.397 0.593907L511.988 0.580776L360.852 0.569858C322.917 0.235632 284.979 0.234467 247.043 0.566363L247.231 0Z"/>
	<path fill="#728A8D" d="M749.47 0L777.687 0C776.113 69.633 801.959 137.097 849.654 187.856C884.195 224.308 924.67 249.472 972.977 263.324C988.141 267.673 1004.17 271.172 1020 271.527C1021.19 271.554 1022.38 271.554 1023.57 271.529L1024 271.513L1024 327.979L1023.44 327.82C1018.56 327.212 1013.35 327.437 1008.43 327.23C999.303 326.848 990.317 326.158 981.281 324.827C978.776 315.063 976.685 305.161 974.485 295.324C963.411 292.559 952.845 289.328 942.093 285.474C935.221 292.861 929.152 300.933 922.541 308.552C908.074 303.183 894.179 295.384 880.134 288.948C882.787 279.406 886.099 270.105 889.506 260.81C879.608 253.29 869.575 246.176 860.05 238.16C850.611 242.758 841.12 247.424 832.047 252.714C821.59 242.464 811.31 232.167 802.023 220.828C806.858 212.128 811.508 203.284 817.42 195.253C809.147 185.038 801.592 175.032 794.505 163.954C784.926 166.928 775.425 170.97 766.239 174.988C756.86 160.595 749.112 145.61 743.496 129.351C751.256 123.238 759.047 117.137 766.394 110.528C763.621 99.3245 758.819 88.5392 755.709 77.3584C745.485 76.3794 735.103 76.0475 724.844 75.2206C721.471 59.2817 718.935 43.316 717.953 27.0377C728.387 22.9151 738.912 18.5931 749.018 13.7231L749.065 6.6538C749.44 4.5018 749.379 2.18449 749.47 0Z"/>
	<path fill="#102638" d="M777.687 0L779.477 0C781.147 0.94701 786.037 0.726627 787.956 0.268809C788.271 0.193729 788.578 0.089603 788.889 0L789.558 0C790.914 59.561 806.417 113.229 842.988 160.993C850.88 171.301 859.118 181.232 868.51 190.215C901.553 221.694 942.24 244.003 986.549 254.936C993.547 256.59 1000.48 257.844 1007.62 258.721C1012.62 259.335 1018.74 259.402 1023.52 260.841C1023.53 264.397 1023.45 267.976 1023.57 271.529C1022.38 271.554 1021.19 271.554 1020 271.527C1004.17 271.172 988.141 267.673 972.977 263.324C924.67 249.472 884.195 224.308 849.654 187.856C801.959 137.097 776.113 69.633 777.687 0Z"/>
	<path fill="#29444D" d="M779.477 0L788.889 0C788.578 0.089603 788.271 0.193729 787.956 0.268809C786.037 0.726627 781.147 0.94701 779.477 0Z"/>
	<path fill="#728A8D" d="M789.558 0L804.994 0C804.974 10.7142 805.068 21.3923 806.206 32.0568C810.83 73.7071 826.453 113.377 851.471 146.996C856.452 153.603 861.845 161.881 868.085 167.296C868.215 167.41 868.365 167.499 868.505 167.601C900.438 204.416 946.804 230.964 994.348 241.072C1001.9 242.678 1010 244.263 1017.7 244.789C1019.52 244.914 1021.29 244.893 1023.07 244.443C1023.65 243.398 1023.63 243.041 1023.66 241.879L1024 241.931L1024 244.756C1022.7 249.29 1022.96 256.147 1023.52 260.841C1018.74 259.402 1012.62 259.335 1007.62 258.721C1000.48 257.844 993.547 256.59 986.549 254.936C942.24 244.003 901.553 221.694 868.51 190.215C859.118 181.232 850.88 171.301 842.988 160.993C806.417 113.229 790.914 59.561 789.558 0Z"/>
	<path fill="#102638" d="M804.994 0L807.592 0C807.922 58.3116 822.289 103.594 857.346 150.579C862.46 157.433 868.449 163.314 873.784 169.906C871.645 169.666 871.024 167.594 869.214 166.616L868.505 167.601C868.365 167.499 868.215 167.41 868.085 167.296C861.845 161.881 856.452 153.603 851.471 146.996C826.453 113.377 810.83 73.7071 806.206 32.0568C805.068 21.3923 804.974 10.7142 804.994 0Z"/>
	<path fill="#728A8D" d="M807.592 0L820.707 0L820.999 0.661737C820.679 51.478 830.776 90.0053 859.476 132.516C866.852 124.618 875.39 117.594 883.403 110.342C895.756 99.0494 908.201 87.8587 920.738 76.7712C909.788 53.3952 904.955 26.4919 910.886 0.980868L911.74 0L930.871 0L930.861 0.434273C923.669 25.4596 927.415 50.2137 940.007 72.8295C952.172 94.6792 974.74 111.132 998.675 117.781C1006.96 120.082 1015.41 120.947 1024 120.969L1024 139.949L1023.39 140C994.35 138.153 978.618 133.339 954.284 117.188C941.935 127.764 929.91 138.942 917.858 149.866C909.867 157.11 901.385 164.207 893.867 171.936C902.64 178.312 910.79 185.395 919.82 191.437C947.8 210.156 989.352 228.415 1023.45 228.623L1024 228.509L1024 229.18C1023.2 233.401 1023.37 237.613 1023.66 241.879C1014.45 240.886 1005.35 240.27 996.231 238.492C961.02 231.624 925.783 214.151 897.931 191.71C889.457 184.882 881.809 177.232 873.784 169.906C868.449 163.314 862.46 157.433 857.346 150.579C822.289 103.594 807.922 58.3116 807.592 0Z"/>
	<path fill="#374A58" d="M820.707 0L911.74 0L910.886 0.980868C906.386 -0.336351 886.577 0.5371 880.234 0.533921C860.543 0.524053 840.668 -0.111763 820.999 0.661737L820.707 0Z"/>
	<path fill="#374A58" d="M930.871 0L941.892 0L942.145 0.621822C938.574 0.0975573 934.531 0.614546 930.861 0.434273L930.871 0Z"/>
	<path fill="#728A8D" d="M941.892 0L1024 0L1024 110.091C1018.11 110.042 1012.25 109.398 1006.49 108.169C984.475 103.455 964.505 90.7008 952.278 71.5526C937.531 48.456 936.5 26.6747 942.145 0.621822L941.892 0Z"/>
	<path fill="#29444D" d="M62.6334 0.500672L75.3489 0.496775L75.2054 1.4324C73.4814 13.0647 72.5726 22.1735 69.636 33.7442C94.3036 46.8788 119.285 60.1518 142.945 75.0211C155.61 51.1736 164.261 26.7087 171.912 0.875862L172.143 0.612088C179.659 0.617732 187.416 1.03527 194.903 0.562431C194.794 0.701806 194.669 0.83032 194.575 0.980555C193.427 2.81394 188.73 23.7533 187.386 28.1651C184.063 39.0981 180.169 49.8494 175.722 60.3751C143.698 135.178 77.2637 204.463 0.535371 233.473C1.14769 224.36 0.616361 214.908 0.511813 205.765C6.74375 204.545 12.8939 200.348 18.4793 197.4C54.4343 178.425 80.8302 154.778 108.666 125.51C101.866 120.354 93.7763 116.266 86.4771 111.804C71.6154 102.791 56.8382 93.6398 42.1475 84.3511C30.2179 98.0698 16.0842 108.615 0.743273 118.155C0.832058 113.082 0.749583 108.007 0.49599 102.939L0.595807 102.595C6.82874 101.071 16.5017 92.4767 21.3403 88.0082C46.803 64.493 61.2939 35.1875 62.6334 0.500672Z"/>
	<path fill="#102638" d="M75.3489 0.496775C99.6949 0.924485 124.105 0.368488 148.463 0.51053C154.36 0.54492 166.795 -0.246841 171.912 0.875862C164.261 26.7087 155.61 51.1736 142.945 75.0211C119.285 60.1518 94.3036 46.8788 69.636 33.7442C72.5726 22.1735 73.4814 13.0647 75.2054 1.4324L75.3489 0.496775Z"/>
	<path fill="#102638" d="M194.903 0.562431L216.841 0.529005C213.78 19.8256 207.559 37.9556 200.358 56.0444C174.894 120.677 131.317 176.587 74.8598 217.062C52.0002 233.656 27.0735 247.196 0.710601 257.341C0.170275 249.368 0.447619 241.451 0.535371 233.473C77.2637 204.463 143.698 135.178 175.722 60.3751C180.169 49.8494 184.063 39.0981 187.386 28.1651C188.73 23.7533 193.427 2.81394 194.575 0.980555C194.669 0.83032 194.794 0.701806 194.903 0.562431Z"/>
	<path fill="#29444D" d="M216.841 0.529005L217.386 0.349034C226.981 1.01614 236.745 0.288899 246.371 0.518005C244.113 10.3715 241.568 20.1926 239.68 30.124C247.614 36.4461 255.842 42.3219 263.939 48.4255C261.614 56.4572 259.448 64.6178 256.672 72.5055C253.659 81.0665 249.97 89.4069 247.091 98.0067C236.415 97.1432 225.153 97.0349 214.663 94.877C209.698 105.644 204.614 116.193 198.21 126.195C203.31 134.945 210.716 142.439 216.313 150.935C206.785 164.955 197.014 178.03 185.908 190.848C176.168 186.994 166.175 182.594 156.186 179.503C147.673 189.068 139.148 198.584 130.05 207.603C134.717 217.49 139.745 227.202 145.125 236.719C132.14 247.987 119.182 259.216 104.398 268.111C95.874 263.017 88.2628 256.509 79.8076 251.408C68.7893 256.84 58.5334 263.704 47.5418 269.218C47.6972 279.478 47.9372 289.736 48.2615 299.991C37.2288 304.415 26.1697 308.773 15.0846 313.064C11.6669 314.348 4.22983 316.166 1.55258 317.855C0.903446 318.264 0.82205 318.45 0.41634 318.987L0 319.082L0 257.488L0.710601 257.341C27.0735 247.196 52.0002 233.656 74.8598 217.062C131.317 176.587 174.894 120.677 200.358 56.0444C207.559 37.9556 213.78 19.8256 216.841 0.529005Z"/>
	<path fill="#102638" d="M246.371 0.518005L247.043 0.566363C284.979 0.234467 322.917 0.235632 360.852 0.569858L511.988 0.580776L685.397 0.593907C706.568 0.491965 727.738 0.501031 748.908 0.621104C748.947 2.6268 748.923 4.65347 749.065 6.6538L749.018 13.7231C738.912 18.5931 728.387 22.9151 717.953 27.0377C718.935 43.316 721.471 59.2817 724.844 75.2206C735.103 76.0475 745.485 76.3794 755.709 77.3584C758.819 88.5392 763.621 99.3245 766.394 110.528C759.047 117.137 751.256 123.238 743.496 129.351C749.112 145.61 756.86 160.595 766.239 174.988C775.425 170.97 784.926 166.928 794.505 163.954C801.592 175.032 809.147 185.038 817.42 195.253C811.508 203.284 806.858 212.128 802.023 220.828C811.31 232.167 821.59 242.464 832.047 252.714C841.12 247.424 850.611 242.758 860.05 238.16C869.575 246.176 879.608 253.29 889.506 260.81C886.099 270.105 882.787 279.406 880.134 288.948C894.179 295.384 908.074 303.183 922.541 308.552C929.152 300.933 935.221 292.861 942.093 285.474C952.845 289.328 963.411 292.559 974.485 295.324C976.685 305.161 978.776 315.063 981.281 324.827C990.317 326.158 999.303 326.848 1008.43 327.23C1013.35 327.437 1018.56 327.212 1023.44 327.82C1023.51 337.498 1022.65 405.778 1024 408.582L1024 514C999.217 520.676 973.919 525.476 949.112 532.161C900.104 545.483 852.08 562.193 805.388 582.171C788.249 589.454 767.878 597.49 751.929 606.757C761.003 623.858 770.896 639.992 781.502 656.164C787.459 665.248 793.346 674.343 800.101 682.866C805.588 680.76 811.18 679.048 817.107 678.903C824.393 686.225 830.619 695.955 836.807 704.244C845.657 715.914 854.649 727.478 863.779 738.931C873.56 739.322 883.189 741.054 892.923 741.553C910.696 755.504 925.644 771.432 939.827 788.987C975.037 832.57 997.22 878.145 1012.91 931.804C1017.51 947.499 1020.12 963.485 1024 979.308L1024 1023.65C1020.97 1023.58 1007.37 1022.61 1005.5 1024L1003.55 1024C1003.62 1012.25 1003.52 1000.71 1002.29 989.008C996.963 938.121 976.594 886.655 940.527 849.707C907.878 816.261 865.223 796.946 818.312 796.423C768.992 795.955 721.515 815.143 686.372 849.75C664.58 871.102 645.405 896.935 634.033 925.426C629.572 936.602 626.371 948.503 623.271 960.119C621.46 966.904 617.385 976.371 617.319 983.23C632.666 936.259 655.364 890.85 690.466 855.473C723.703 821.977 767.775 799.516 815.576 799.57C862.661 799.623 905.309 817.682 938.362 851.277C973.605 887.097 994.229 938.344 999.909 987.79C1001.29 999.853 1001.47 1011.87 1001.35 1024L974.015 1024L973.991 1022.12C974.914 1018.66 974.77 1014.29 974.805 1010.66C975.013 988.929 971.099 966.764 964.443 946.097C951.952 907.317 923.521 864.573 886.598 845.662C882.107 842.67 876.828 840.494 871.849 838.421C845.992 827.639 817.514 824.782 790.03 830.213C773.976 833.389 755.1 839.235 741.345 848.253C734.12 851.83 727.455 856.989 721.146 861.983C691.876 885.155 671.856 916.179 659.985 951.401C652.291 974.232 648.475 999.968 651.578 1024L594.289 1024C598.738 1000.7 606.771 978.188 614.948 955.988C619.703 943.08 624.311 930.175 629.381 917.38C645.915 880.67 670.905 847.954 703.608 824.167C711.517 818.415 720.114 813.437 728.488 808.391C727.502 806.664 726.556 804.961 726.006 803.039C724.002 796.026 727.477 789.631 730.897 783.764C669.355 815.527 615.754 879.734 576.52 935.861C579.071 936.477 582.743 936.945 584.562 938.963C586.443 941.049 586.038 968.424 586.157 973.225C592.906 962.983 600.315 953.17 607.248 943.048C613.109 934.489 618.574 925.316 624.879 917.112C625.757 915.97 626.403 915.021 627.811 914.618L627.635 916.238C615.57 943.59 604.693 970.913 597.172 999.917C595.171 1007.63 592.806 1016.04 592.27 1024L537.471 1024C551.259 1012.76 565.333 1001.91 578.659 990.114C577.766 974.452 578.492 958.798 577.736 943.172L571.752 941.367C556.743 955.435 542.8 970.744 527.82 984.858C520.673 991.591 509.23 999.159 503.653 1006.67C500.415 1011.03 499.284 1018.77 497.871 1024L487.24 1024C488.074 1020.34 489.289 1016.67 490.327 1013.06C493.543 1001.86 497.155 998.575 505.965 991.64C508.918 989.316 511.786 987.125 513.687 983.787C517.766 976.627 521.847 958.766 524.086 950.15C525.213 945.812 526.087 940.95 528.197 936.964C531.359 930.992 537.493 925.179 541.873 920.02C548.557 912.146 557.35 903.501 562.665 894.76C567.199 887.304 571.489 869.059 573.961 859.899C580.07 837.257 584.416 808.007 579.238 785.084C577.167 775.918 573.372 767.221 569.638 758.635C566.886 752.309 564.164 745.873 560.722 739.887C554.418 744.959 547.707 749.639 541.238 754.51C524.8 766.888 508.39 779.199 492.727 792.556C430.098 846.661 374.747 908.656 328.058 976.991C317.423 992.35 307.44 1008.23 297.419 1024L0.6465 1024C0.281365 1001 0.636547 977.956 0.572021 954.949C0.187254 905.595 0.137433 856.239 0.42256 806.885L0.620837 509.179C0.551715 469.364 -0.0330617 429.517 0.34821 389.705L0.393146 345.392C0.474787 336.876 1.54347 327.408 0.41634 318.987C0.82205 318.45 0.903446 318.264 1.55258 317.855C4.22983 316.166 11.6669 314.348 15.0846 313.064C26.1697 308.773 37.2288 304.415 48.2615 299.991C47.9372 289.736 47.6972 279.478 47.5418 269.218C58.5334 263.704 68.7893 256.84 79.8076 251.408C88.2628 256.509 95.874 263.017 104.398 268.111C119.182 259.216 132.14 247.987 145.125 236.719C139.745 227.202 134.717 217.49 130.05 207.603C139.148 198.584 147.673 189.068 156.186 179.503C166.175 182.594 176.168 186.994 185.908 190.848C197.014 178.03 206.785 164.955 216.313 150.935C210.716 142.439 203.31 134.945 198.21 126.195C204.614 116.193 209.698 105.644 214.663 94.877C225.153 97.0349 236.415 97.1432 247.091 98.0067C249.97 89.4069 253.659 81.0665 256.672 72.5055C259.448 64.6178 261.614 56.4572 263.939 48.4255C255.842 42.3219 247.614 36.4461 239.68 30.124C241.568 20.1926 244.113 10.3715 246.371 0.518005ZM745.693 339.07C744.279 331.01 741.007 322.774 738.084 315.144C721.517 271.902 691.355 232.372 653.379 205.769C634.169 192.312 614.08 181.795 591.684 174.689C585.547 172.741 579.272 170.776 572.892 169.838C553.892 167.046 529.732 169.227 510.841 172.581C488.623 176.527 461.388 184.093 441.846 195.324C468.984 203.093 499.174 225.7 512.855 250.684C513.111 251.144 513.358 251.61 513.596 252.08C520.22 249.406 526.797 246.725 533.72 244.906C560.925 237.757 589.756 241.078 615.42 252.069C624.374 255.904 632.269 261.243 640.422 266.47C636.399 240.389 620.358 212.966 602.049 194.231C595.583 187.614 588.224 181.823 580.778 176.349C578.798 174.909 576.785 173.513 574.742 172.162C586.4 176.024 598.235 179.624 609.471 184.615C648.989 202.167 681.815 228.901 706.765 264.187C712.648 272.507 718.445 281.105 723.015 290.231C727.282 298.752 731.533 307.425 734.961 316.327C736.932 321.441 740.604 336.287 742.87 339.707L742.43 341.515C740.27 342.52 701.285 345.649 696.271 346.141C680.221 319.094 665.035 297.957 640.884 277.6C626.05 265.095 609.997 255.272 591.03 250.434C561.883 243 529.347 248.132 503.556 263.639C478.425 278.75 459.273 304.983 452.413 333.444C442.391 375.019 456.393 440.276 469.885 479.698C465.027 485.121 459.318 490.946 455.325 496.977C453.891 498.562 452.485 500.173 451.109 501.809L424.637 532.477C420.1 537.707 414.874 542.903 410.818 548.492C408.57 550.98 405.912 553.34 405.464 556.815L405.876 557.735C408.066 556.808 410.918 552.111 412.496 550.137C416.951 546.401 421.092 540.55 424.944 536.146C434.977 524.885 444.793 513.433 454.387 501.796L456.533 499.137C460.177 496.12 469.826 483.88 472.249 479.751C467.7 467.568 464.429 454.869 461.395 442.236C452.837 406.602 445.313 364.511 456.302 328.575C464.833 300.676 485.58 276.488 511.376 263.036C538.022 249.08 569.118 246.269 597.834 255.222C637.71 267.96 675.536 311.818 694.333 348.209C705.198 346.968 716.077 345.856 726.969 344.871C733.175 344.277 739.967 344.118 746.006 342.615C746.448 341.176 746.075 340.504 745.693 339.07ZM285.444 364.99C277.435 368.662 268.739 371.933 259.925 372.926C258.214 373.119 252.773 372.67 251.931 373.748C252.194 374.622 251.971 374.6 252.706 374.936C258.951 377.795 275.194 372.396 281.222 369.642C282.971 368.846 284.693 367.991 286.383 367.078C288.879 365.718 290.569 363.961 291.921 361.486C295.599 354.747 297.994 345.09 300.952 337.713C306.101 324.87 312.908 311.959 319.831 299.976C332.041 278.84 348.047 258.104 365.218 240.77C404.023 201.597 453.883 172.129 509.259 165.097C521.307 163.568 533.602 162.585 545.75 162.536C553.316 162.506 560.868 163.016 568.441 162.975C567.932 162.849 567.425 162.718 566.914 162.6C552.071 159.176 534.825 160.022 519.7 161.209C495.669 163.086 472.084 168.74 449.814 177.96C397.672 199.912 350.51 244.143 321.071 292.039C311.658 307.353 303.346 324.165 296.503 340.787C294.993 344.455 293.462 348.162 292.227 351.934C291.141 355.249 290.372 358.823 288.73 361.924C287.96 363.378 286.807 364.138 285.444 364.99ZM742.04 422.541C702.259 436.818 676.621 462.255 651.882 495.614C650.842 482.863 643.363 437.214 634.704 429.489L634.129 429.559C634.544 431.758 638.274 438.894 639.307 442.21C644.616 459.259 650.151 479.581 650.158 497.566C646.428 502.696 642.751 507.863 639.127 513.068C638.352 490.156 635.093 460.945 625.45 440.096C639.553 421.323 648.152 402.806 644.723 378.739C641.888 358.844 630.847 341.429 614.736 329.533C598.882 317.825 579.653 311.909 560.015 314.916C541.281 317.893 524.466 328.108 513.19 343.361C501.926 358.746 497.664 378.617 500.601 397.349C502.994 412.199 509.639 426.038 519.732 437.191C521.161 438.801 523.244 441.513 525.064 442.624C525.279 442.755 525.542 442.779 525.782 442.857C524.33 440.3 522.087 438.391 520.169 436.188C517.962 433.651 515.981 430.86 514.089 428.084C501.702 410.018 497.933 387.399 503.794 366.292C508.812 348.422 520.324 333.094 536.663 324.113C552.874 315.202 571.303 312.674 589.158 317.931C609.142 323.695 625.962 337.264 635.825 355.575C644.579 372.316 646.349 391.842 640.749 409.884C637.202 421.472 630.692 430.808 623.524 440.377C630.015 457.172 634.096 474.801 635.645 492.74C636.363 500.202 636.396 507.881 637.398 515.287C622.18 537.34 603.188 557.719 584.716 577.079C550.092 613.37 518.52 643.204 478.631 673.768C469.085 681.145 459.245 688.132 449.135 694.715C440.337 700.428 429.356 705.739 421.93 713.052C433.61 708.005 448.054 697.993 458.743 690.589C516.998 650.237 570.498 598.586 616.409 544.712C659.029 494.701 676.81 448.211 743.603 423.95C752.274 421.333 760.708 419.217 769.749 418.331C768.313 410.136 767.79 401.753 766.416 393.531C764.966 384.861 757.267 350.613 752.507 344.342C751.796 343.405 751.485 343.518 750.38 343.387C749.535 344.712 749.785 345.692 750.313 347.143C751.546 350.537 752.266 353.917 753.28 357.367C755.576 365.175 757.939 372.659 759.614 380.652C762.124 392.629 763.527 404.768 765.751 416.794C757.654 418.154 749.902 420.223 742.04 422.541ZM742.216 607.867C735.608 594.806 729.337 581.577 723.41 568.193C717.148 572.372 712.122 579.222 707.093 584.822C687.055 607.135 672.997 625.063 658.641 651.754C654.147 660.109 649.617 668.38 647.692 677.77C646.838 681.938 646.696 686.106 646.981 690.343C647.712 701.183 657.558 767.631 662.031 774.14C662.15 774.315 662.278 774.483 662.402 774.654C662.604 769.184 659.674 759.411 658.566 753.755C656.321 742.305 654.347 730.771 652.34 719.276C650.266 707.397 646.941 692.868 648.466 680.842C649.758 670.654 655.162 660.951 660.052 652.071C670.779 632.593 682.847 614.718 697.439 597.954C705.378 588.834 714.154 580.287 721.762 570.908C724.765 575.838 727.025 581.278 729.508 586.484C733.099 594.124 736.878 601.673 740.844 609.125C746.475 620.081 751.816 631.357 758.06 641.97C750.137 648.494 742.751 655.643 735.973 663.35C716.179 686.017 672.127 748.689 668.805 777.029C668.786 777.19 668.774 777.353 668.759 777.515C672.749 767.737 676.602 758.023 681.221 748.509C693.796 722.613 714.274 690.014 734.637 669.674C743.059 661.262 752.85 654.728 761.512 646.715C768.059 657.344 781.848 682.523 790.292 689.844C787.458 683.219 782.803 677.077 778.918 671.018L762.17 644.457L761.058 642.224C756.511 637.462 746.034 614.918 742.216 607.867ZM257.303 384.28C257.772 405.646 256.262 432.16 266.846 451.163C271.904 460.246 278.4 468.366 283.741 477.262C287.581 483.659 290.997 490.256 292.404 497.643C295.909 516.055 288.156 549.807 281.138 567.121C279.067 572.231 272.392 581.763 271.631 585.435C271.257 587.236 272.161 588.859 273.185 590.269C278.615 597.749 292.396 596.875 300.563 598.536C305.003 599.439 308.727 601.389 311.193 605.304C316.359 613.505 313.99 622.916 311.969 631.616L312.366 632.727C313.406 632.824 314.446 632.911 315.487 632.988C316.56 633.077 316.129 633.013 317.166 633.276C315.612 633.251 314.016 632.979 312.709 633.958C312.307 635.255 312.284 635.792 312.973 637.012C315.42 641.345 321.38 644.777 325.844 646.493L327.691 647.568C328.376 647.656 328.73 647.575 329.393 647.425L329.741 646.275C330.326 647.018 330.956 647.692 331.609 648.375L332.593 648.284C334.092 646.628 334.744 643.13 335.742 641.024L336.349 641.177C336.512 643.39 334.663 645.768 334.383 648.097L335.25 648.49C335.657 648.035 336.037 647.582 336.409 647.096L336.775 646.61L337.239 647.86L337.967 647.918C339.681 646.533 339.38 644.216 340.779 642.655C340.896 642.525 341.042 642.423 341.174 642.307C341.091 643.619 340.852 644.396 340.255 645.532L340.015 645.979L339.683 646.616C339.331 647.279 339.437 646.834 339.626 647.872L340.254 647.866C341.278 647.28 342.123 646.915 342.837 645.949L342.45 644.734C342.769 643.583 342.77 643.577 343.738 642.879C343.751 644.052 343.78 645.225 343.824 646.397C344.657 646.01 345.501 642.532 346.181 641.371C346.187 642.388 346.162 643.428 346.37 644.427C346.601 645.54 346.49 645.569 347.485 646.219C347.639 646.171 347.8 646.141 347.948 646.073C350.191 645.046 351.432 642.101 352.5 640.016L354.307 640.382L354.204 642.528L354.542 642.832C357.36 639.618 359.628 641.059 363.362 639.733C369.516 640.282 374.174 637.583 379.872 635.982C379.726 636.16 379.582 636.34 379.434 636.516C371.558 645.921 334.912 651.933 333.542 654.329C333.195 654.936 333.299 657.029 333.34 657.713C333.592 661.966 335.016 668.612 338.456 671.342C340.209 672.733 342.361 672.905 344.496 672.523C350.129 671.516 361.298 663.323 366.235 665.927C366.847 666.715 367.429 667.443 367.873 668.34C366.775 667.364 366.098 666.317 364.507 666.395C361.173 666.56 353.511 672.288 349.995 673.933C351.255 674.79 352.55 675.823 353.947 676.417C356.772 680.015 359.035 683.585 360.625 687.889C363.666 696.125 364.037 709.064 370.113 715.665C372.916 718.708 376.65 719.686 380.671 719.835C385.062 719.998 389.523 719.15 393.782 718.177C408.311 714.859 417.572 707.697 428.287 697.464C414.633 650.83 403.617 602.936 399.628 554.416C403.683 546.938 411.98 538.926 417.636 532.296C432.967 514.325 448.944 496.736 463.654 478.266C459.901 469.32 457.711 459.282 455.255 449.888C445.118 411.11 436.3 362.723 449.061 323.676C459.105 292.942 480.857 268.399 509.516 253.789L509.161 253.227C492.015 226.121 467.36 205.361 435.583 198.206C381.079 228.207 341.137 273.962 314.214 329.596C311.255 335.711 308.648 342.031 306.149 348.347C303.459 355.143 301.338 364.587 296.462 370.133C287.835 379.944 269.61 383.372 257.303 384.28ZM816.1 752.491C801.221 755.472 745.642 771.308 738.321 782.851C735.684 787.009 731.639 795.107 732.815 800.048C733.156 801.485 733.834 802.492 735.124 803.225C736.293 803.889 737.048 803.754 738.325 803.348C746.885 800.629 755.263 795.882 763.587 792.413C777.121 786.773 790.984 783.138 805.294 780.16C809.241 779.338 813.072 778.511 816.675 776.626C817.907 775.982 818.785 775.572 819.387 774.263C822.133 768.288 819.607 761.314 817.371 755.586L817.016 754.701C832.947 751.121 850.6 750.594 866.853 751.76C874.261 752.292 881.849 753.582 889.257 753.598C896.576 760.729 903.591 768.182 910.679 775.54C927.522 793.821 941.487 813.405 955.098 834.155C966.64 852.974 976.924 872.075 986.209 892.111C988.752 897.599 991.598 903.107 993.819 908.723C993.933 909.01 994.025 909.306 994.128 909.598L994.545 909.306L993.492 909.45L994.478 908.241C993.005 902.981 989.995 897.455 987.8 892.445C979.037 872.439 970.088 851.287 957.315 833.469C943.555 811.095 927.742 790.743 909.933 771.441C903.673 764.584 896.775 758.199 890.212 751.625C864.773 749.286 841.453 747.019 816.1 752.491ZM641.076 779.258C642.41 768.608 641.562 757.067 641.673 746.307C641.802 733.74 643.233 717.369 641.497 705.442C640.273 708.969 639.632 768.913 639.577 777.642C639.321 787.027 638.098 797.11 638.798 806.423C641.297 802.932 641.247 784.206 641.076 779.258ZM510.034 155.726C435.721 158.02 365.423 189.985 314.847 244.48C283.326 278.421 258.846 323.004 252.251 369.188C260.567 367.704 268.649 365.922 276.625 363.057L284.622 359.877C308.354 284.976 361.22 217.728 431.534 181.524C455.768 169.047 481.597 160.836 508.766 158.22C513.818 157.733 537.469 157.672 539.289 156.887C529.942 155.141 519.534 155.68 510.034 155.726ZM552.738 257.203C525.358 259.595 500.042 272.74 482.335 293.761C458.742 321.962 454.558 353.642 457.833 388.98C459.835 410.589 464.472 432.022 470.054 452.963C472.519 462.206 476.007 471.532 477.901 480.87C474.954 486.444 470.38 491.578 466.482 496.52C455.864 509.984 444.688 522.866 433.355 535.727C424.631 545.626 416.178 555.812 407.32 565.584C412.534 606.463 420.347 651.652 433.38 690.657C439.238 686.163 449.169 678.802 453.272 672.948C459.064 664.686 467.386 617.566 469.337 605.23C470.55 596.688 470.498 586.767 472.65 578.602C472.711 578.367 472.762 578.129 472.829 577.895C473.59 575.23 476.132 572.905 478.009 570.942C497.084 550.99 517.529 532.263 536.812 512.479C542.438 506.794 547.953 501.002 553.355 495.104C560.835 486.887 568.207 477.737 577.171 471.126C552.072 468.828 528.894 457.872 512.636 438.184C498.435 421.226 491.674 399.258 493.882 377.249C495.944 356.947 506.159 338.351 522.189 325.723C540.715 310.607 564.582 303.656 588.327 306.462C597.577 307.519 606.249 310.109 614.696 313.985C619.054 301.949 623.199 289.707 628.056 277.868C604.778 263.276 580.596 254.719 552.738 257.203ZM562.688 320.659C547.556 322.58 530.208 333.172 520.849 345.134C509.895 359.201 505.098 377.101 507.55 394.761C510.074 413.924 523.416 432.513 538.633 444.046C539.394 444.623 540.069 445.193 540.973 445.535C537.628 442.405 526.267 432.381 525.784 428.146C526.843 428.146 527.562 428.253 528.39 428.993C531.164 431.469 533.289 434.719 536.114 437.242C546.451 446.474 560.344 451.676 574.158 452.02C578.249 452.122 582.327 451.79 586.38 451.251C603.527 446.992 617.003 438.254 626.181 422.915C635.192 407.999 637.907 390.113 633.726 373.194C629.651 357.093 620.385 345.107 606.156 336.684C589.58 326.871 573.496 327.086 555.15 330.391L556.03 329.928C557.611 329.104 559.111 328.871 560.219 327.449C560.398 325.953 560.226 325.713 561.331 324.729L562.236 324.548L562.45 325.025C562.248 325.187 562.02 325.321 561.844 325.512C561.685 325.685 561.062 326.66 560.917 326.884L561.328 327.485C565.448 327.817 569.939 325.945 574.047 325.41C570.062 325.191 566.572 325.468 562.643 326.159C563.628 324.689 564.737 322.435 566.354 321.645L566.761 322.339C566.649 322.42 566.532 322.494 566.425 322.581C566.018 322.912 565.632 323.268 565.237 323.614C565.99 324.038 567.061 324.284 567.938 324.034C569.265 323.656 569.556 323.185 570.296 322.127C570.168 321.588 570.21 321.253 569.784 320.877C569.051 321.533 569.067 321.902 568.769 322.816L568.097 322.698C567.869 322.03 567.878 321.266 567.163 320.996C565.891 320.514 564.041 320.674 562.688 320.659ZM691.92 462.116C691.181 471.61 692.977 481.958 694.845 491.262C675.591 502.246 652.545 531.73 646.623 553.212C643.786 563.506 643.18 640.634 646.116 651.16C647.095 644.385 645.667 633.086 645.666 625.533C645.703 612.369 645.857 599.206 646.129 586.045C646.324 575.311 645.467 562.914 648.49 552.585C651.468 542.408 657.931 531.997 664.066 523.438C671.134 513.578 679.704 504.205 689.407 496.879C691.253 495.462 693.211 494.198 695.262 493.098C698.414 505.515 701.812 517.757 706.122 529.828C709.725 539.915 714.031 549.815 717.411 559.967C701.533 574.612 687.816 589.687 675.419 607.435C670.788 614.079 666.332 620.707 662.456 627.831C659.278 633.673 656.612 639.781 653.47 645.634C657.488 629.403 668.019 613.719 677.861 600.381C675.404 594.594 673.963 588.291 672.283 582.238C669.812 573.337 667.229 564.443 664.937 555.496C663.538 550.031 662.421 544.445 660.798 539.046C659.245 541.474 657.985 543.709 657.193 546.519C654.972 554.403 654.829 563.411 654.36 571.569C653.422 587.94 652.905 604.332 652.812 620.729C652.732 628.956 653.321 637.556 652.711 645.729C652.332 650.811 649.594 655.395 648.66 660.4L649.047 659.686C653.488 651.41 656.588 642.46 660.955 634.117C675.745 606.144 695.659 581.2 719.663 560.584C709.783 531.369 693.945 498.402 693.561 467.049C693.535 464.963 693.972 463.189 691.92 462.116ZM608.941 462.954C602.143 466.577 594.485 469.414 588.226 473.891C581.592 478.636 575.518 484.563 569.573 490.129C560.579 498.502 551.733 507.033 543.039 515.718C521.961 536.647 501.007 557.631 479.595 578.213C477.518 595.18 476.347 612.269 473.181 629.105C471.933 635.737 470.358 642.368 468.712 648.911C467.743 652.758 466.075 657.111 465.84 661.057C466.571 660.71 466.993 660.239 467.573 659.685C506.968 621.033 546.364 582.423 583.475 541.546C592.522 531.581 606.017 518.537 612.8 506.998C612.757 498.664 611.63 470.23 609.299 463.261L608.941 462.954ZM621.164 556.749C619.67 559.097 618.216 561.414 616.946 563.894C619.165 570.465 621.209 576.965 622.469 583.805C625.066 597.907 625.375 612.459 625.868 626.753C626.748 660.145 625.874 693.56 623.25 726.861C622.154 741.27 620.541 755.63 619.329 770.028C617.555 791.082 617.399 812.078 613.063 832.798C613.788 832.625 613.537 832.798 613.905 832.442C616.22 828.742 618.673 825.554 621.489 822.232C624.656 801.468 625.103 779.767 626.669 758.795C629.853 716.154 633.113 673.624 632.143 630.828C631.674 610.093 630.85 589.876 625.951 569.625C625.162 566.362 623.953 559.638 621.682 557.177C621.53 557.012 621.337 556.891 621.164 556.749ZM690.404 616.254C679.068 630.781 658.773 659.729 656.31 677.86C654.87 688.462 656.702 702.074 658.024 712.742C659.774 726.865 662.85 750.468 667.36 763.538C669.299 760.131 671.049 756.688 672.722 753.143C684.366 729.13 699.044 707.085 715.457 686.109C713.256 678.739 692.576 617.464 690.404 616.254ZM590.427 620.765C589.229 626.432 589.428 632.582 589.123 638.368C588.685 646.258 587.948 654.128 586.912 661.962C584.202 681.521 580.585 700.484 575.212 719.5C573.218 726.558 570.415 733.379 568.435 740.395C570.888 744.736 582.757 772.889 583.987 773.798L584.844 773.317C596.952 751.206 602.923 724.799 606.329 700.025C607.284 693.078 608.335 685.921 608.065 678.9C607.66 668.33 604.882 657.095 601.875 646.947C599.987 640.577 595.163 624.903 590.427 620.765ZM576.087 634.834C558.448 651.545 542.448 669.253 532.353 691.657C538.53 697.399 544.216 703.328 549.66 709.771C553.89 714.859 557.783 720.218 561.313 725.815C568.788 700.91 572.503 675.823 575.571 650.067C575.98 646.634 577.784 637.97 576.521 634.969L576.087 634.834ZM534.349 674.005C530.882 677.443 525.969 681.296 524.388 686.013C524.715 687.564 525.129 687.677 526.298 688.684L527.142 688.663C528.054 685.681 534.602 674.725 534.606 674.628C534.614 674.426 534.477 674.245 534.412 674.053L534.349 674.005ZM733.836 681.389C728.021 687.152 723.541 694.972 718.957 701.727C710.62 714.013 702.359 725.865 695.117 738.861C690.209 747.667 686.277 757.306 679.871 765.138L687.022 759.659C695.722 751.951 704.527 744.362 713.435 736.894C718.931 732.323 724.712 727.994 730.078 723.287C727.236 716.258 723.447 709.671 720.537 702.671C723.358 698.627 733.524 685.669 734.294 681.898L733.836 681.389ZM811.165 688.426C793.633 695.408 776.331 703.581 760.26 713.509C728.119 733.364 699.654 758.924 672.52 785.022C663.317 793.875 653.886 802.613 644.998 811.776C636.124 820.925 627.688 830.65 619.353 840.297C603.513 858.63 588.754 877.883 573.531 896.722C568.399 903.12 563.165 909.437 557.832 915.668C552.867 921.415 539.64 935.112 536.85 941.298C533.117 949.572 530.981 959.605 528.774 968.42C533.511 962.915 537.327 956.458 541.618 950.575C549.84 939.197 558.428 928.089 567.369 917.267C597.586 879.731 627.784 841.364 663.741 809.071C673.603 800.062 683.848 791.481 694.447 783.352C705.37 775.003 716.835 767.109 727.182 758.045C736.096 750.237 736.536 739.795 742.364 730.324C750.446 717.189 796.785 696.868 812.095 690.134C821.408 703.039 831.205 715.433 840.781 728.122C843.084 731.173 846.03 736.846 848.53 739.095L849.225 738.968C849.593 736.96 849.034 735.809 847.902 734.15C843.253 727.337 837.5 721.272 832.509 714.715C826.827 707.25 821.801 699.264 816.055 691.862C815.057 690.576 814.131 689.336 812.692 688.511L811.165 688.426ZM614.242 727.447C611.339 735.628 609.646 744.2 606.787 752.398C602.057 765.959 595.323 777.959 588.4 790.472C588.915 802.92 589.229 815.215 587.848 827.629C587.035 834.935 584.163 844.511 584.46 851.527C590.23 843.799 601.723 826.365 604.424 817.458C605.949 812.428 606.084 806.271 606.542 801.009C607.559 789.326 608.151 777.574 609.419 765.918C610.374 757.141 611.63 748.386 612.791 739.635C613.303 735.774 614.331 731.297 614.242 727.447ZM606.841 826.376C603.901 832.351 589.228 858.878 584.28 861.2C584.092 861.062 583.906 860.923 583.717 860.788C582.923 860.221 583.257 860.424 582.398 860.021C580.601 863.653 580.098 868.167 578.977 872.086C584.467 863 607.493 836.117 606.841 826.376Z"/>
	<path fill="#102638" d="M820.999 0.661737C840.668 -0.111763 860.543 0.524053 880.234 0.533921C886.577 0.5371 906.386 -0.336351 910.886 0.980868C904.955 26.4919 909.788 53.3952 920.738 76.7712C908.201 87.8587 895.756 99.0494 883.403 110.342C875.39 117.594 866.852 124.618 859.476 132.516C830.776 90.0053 820.679 51.478 820.999 0.661737Z"/>
	<path fill="#102638" d="M1024 120.969C1015.41 120.947 1006.96 120.082 998.675 117.781C974.74 111.132 952.172 94.6792 940.007 72.8295C927.415 50.2137 923.669 25.4596 930.861 0.434273C934.531 0.614546 938.574 0.0975573 942.145 0.621822C936.5 26.6747 937.531 48.456 952.278 71.5526C964.505 90.7008 984.475 103.455 1006.49 108.169C1012.25 109.398 1018.11 110.042 1024 110.091L1024 120.969Z"/>
	<path fill="#102638" d="M0.589282 119.025L0.743273 118.155C16.0842 108.615 30.2179 98.0698 42.1475 84.3511C56.8382 93.6398 71.6154 102.791 86.4771 111.804C93.7763 116.266 101.866 120.354 108.666 125.51C80.8302 154.778 54.4343 178.425 18.4793 197.4C12.8939 200.348 6.74375 204.545 0.511813 205.765L0.557393 204.504C1.05764 193.615 0.414561 182.488 0.371065 171.573L0.589282 119.025Z"/>
	<path fill="#374A58" d="M0 96.769L0.612482 96.955L0.595807 102.595L0.49599 102.939L0 102.811L0 96.769Z"/>
	<path fill="#4E696D" d="M0 102.811L0.49599 102.939C0.749583 108.007 0.832058 113.082 0.743273 118.155L0.589282 119.025L0 119.231L0 102.811Z"/>
	<path fill="#102638" d="M954.284 117.188C978.618 133.339 994.35 138.153 1023.39 140C1023.45 156.416 1023.75 172.801 1023.61 189.221C1023.52 199.887 1022.64 211.223 1023.49 221.815L1023.45 228.623C989.352 228.415 947.8 210.156 919.82 191.437C910.79 185.395 902.64 178.312 893.867 171.936C901.385 164.207 909.867 157.11 917.858 149.866C929.91 138.942 941.935 127.764 954.284 117.188Z"/>
	<path fill="#374A58" d="M0 119.231L0.589282 119.025L0.371065 171.573C0.414561 182.488 1.05764 193.615 0.557393 204.504L0 204.545L0 119.231Z"/>
	<path fill="#29444D" d="M1023.39 140L1024 139.949L1024 221.918L1023.49 221.815C1022.64 211.223 1023.52 199.887 1023.61 189.221C1023.75 172.801 1023.45 156.416 1023.39 140Z"/>
	<path fill="#D6D6CA" d="M252.251 369.188C258.846 323.004 283.326 278.421 314.847 244.48C365.423 189.985 435.721 158.02 510.034 155.726C519.534 155.68 529.942 155.141 539.289 156.887C537.469 157.672 513.818 157.733 508.766 158.22C481.597 160.836 455.768 169.047 431.534 181.524C361.22 217.728 308.354 284.976 284.622 359.877L276.625 363.057C268.649 365.922 260.567 367.704 252.251 369.188Z"/>
	<defs>
		<linearGradient id="gradient_0" gradientUnits="userSpaceOnUse" x1="468.72617" y1="293.58115" x2="364.6272" y2="225.979">
			<stop offset="0" stop-color="#EFE6E1"/>
			<stop offset="1" stop-color="#FFFEF0"/>
		</linearGradient>
	</defs>
	<path fill="url(#gradient_0)" d="M285.444 364.99C286.807 364.138 287.96 363.378 288.73 361.924C290.372 358.823 291.141 355.249 292.227 351.934C293.462 348.162 294.993 344.455 296.503 340.787C303.346 324.165 311.658 307.353 321.071 292.039C350.51 244.143 397.672 199.912 449.814 177.96C472.084 168.74 495.669 163.086 519.7 161.209C534.825 160.022 552.071 159.176 566.914 162.6C567.425 162.718 567.932 162.849 568.441 162.975C560.868 163.016 553.316 162.506 545.75 162.536C533.602 162.585 521.307 163.568 509.259 165.097C453.883 172.129 404.023 201.597 365.218 240.77C348.047 258.104 332.041 278.84 319.831 299.976C312.908 311.959 306.101 324.87 300.952 337.713C297.994 345.09 295.599 354.747 291.921 361.486C290.569 363.961 288.879 365.718 286.383 367.078L285.444 364.99Z"/>
	<path fill="#06131B" d="M868.505 167.601L869.214 166.616C871.024 167.594 871.645 169.666 873.784 169.906C881.809 177.232 889.457 184.882 897.931 191.71C925.783 214.151 961.02 231.624 996.231 238.492C1005.35 240.27 1014.45 240.886 1023.66 241.879C1023.63 243.041 1023.65 243.398 1023.07 244.443C1021.29 244.893 1019.52 244.914 1017.7 244.789C1010 244.263 1001.9 242.678 994.348 241.072C946.804 230.964 900.438 204.416 868.505 167.601Z"/>
	<path fill="#D6D6CA" d="M745.693 339.07L745.255 339.833C745.283 341.075 745.544 341.304 744.73 342.307L743.912 342.223L743.701 341.364C743.48 340.494 742.996 339.817 742.741 339.012C742.693 338.859 742.721 338.693 742.711 338.533L742.402 339.398L742.988 339.218L742.87 339.707C740.604 336.287 736.932 321.441 734.961 316.327C731.533 307.425 727.282 298.752 723.015 290.231C718.445 281.105 712.648 272.507 706.765 264.187C681.815 228.901 648.989 202.167 609.471 184.615C598.235 179.624 586.4 176.024 574.742 172.162C576.785 173.513 578.798 174.909 580.778 176.349C588.224 181.823 595.583 187.614 602.049 194.231C620.358 212.966 636.399 240.389 640.422 266.47C632.269 261.243 624.374 255.904 615.42 252.069C589.756 241.078 560.925 237.757 533.72 244.906C526.797 246.725 520.22 249.406 513.596 252.08C513.358 251.61 513.111 251.144 512.855 250.684C499.174 225.7 468.984 203.093 441.846 195.324C461.388 184.093 488.623 176.527 510.841 172.581C529.732 169.227 553.892 167.046 572.892 169.838C579.272 170.776 585.547 172.741 591.684 174.689C614.08 181.795 634.169 192.312 653.379 205.769C691.355 232.372 721.517 271.902 738.084 315.144C741.007 322.774 744.279 331.01 745.693 339.07Z"/>
	<path fill="#D6D6CA" d="M311.969 631.616C313.99 622.916 316.359 613.505 311.193 605.304C308.727 601.389 305.003 599.439 300.563 598.536C292.396 596.875 278.615 597.749 273.185 590.269C272.161 588.859 271.257 587.236 271.631 585.435C272.392 581.763 279.067 572.231 281.138 567.121C288.156 549.807 295.909 516.055 292.404 497.643C290.997 490.256 287.581 483.659 283.741 477.262C278.4 468.366 271.904 460.246 266.846 451.163C256.262 432.16 257.772 405.646 257.303 384.28C269.61 383.372 287.835 379.944 296.462 370.133C301.338 364.587 303.459 355.143 306.149 348.347C308.648 342.031 311.255 335.711 314.214 329.596C341.137 273.962 381.079 228.207 435.583 198.206C467.36 205.361 492.015 226.121 509.161 253.227L509.516 253.789C480.857 268.399 459.105 292.942 449.061 323.676C436.3 362.723 445.118 411.11 455.255 449.888C457.711 459.282 459.901 469.32 463.654 478.266C448.944 496.736 432.967 514.325 417.636 532.296C411.98 538.926 403.683 546.938 399.628 554.416C403.617 602.936 414.633 650.83 428.287 697.464C417.572 707.697 408.311 714.859 393.782 718.177C389.523 719.15 385.062 719.998 380.671 719.835C376.65 719.686 372.916 718.708 370.113 715.665C364.037 709.064 363.666 696.125 360.625 687.889C359.035 683.585 356.772 680.015 353.947 676.417C357.606 678.074 360.922 683.293 363.483 686.428C366.374 683.581 368.804 680.509 369.583 676.394C370.095 673.691 369.482 670.587 367.873 668.34C367.429 667.443 366.847 666.715 366.235 665.927C361.298 663.323 350.129 671.516 344.496 672.523C342.361 672.905 340.209 672.733 338.456 671.342C335.016 668.612 333.592 661.966 333.34 657.713C333.299 657.029 333.195 654.936 333.542 654.329C334.912 651.933 371.558 645.921 379.434 636.516C379.582 636.34 379.726 636.16 379.872 635.982C374.174 637.583 369.516 640.282 363.362 639.733C350.473 636.969 333.99 632.184 321.136 631.391C318.016 630.889 315.057 630.999 311.969 631.616ZM407.579 437.675L412.98 439.601C392.325 425.571 369.5 413.935 343.729 418.863C328.261 421.821 315.521 432.396 302.712 440.873C298.3 443.793 293.222 446.2 289.27 449.72C293.06 469.832 291.099 485.047 306.778 500.479C306.892 501.167 306.776 500.823 307.284 501.593C310.285 506.141 311.076 510.444 313.2 515.308C314.998 513.648 318.515 496.641 318.858 493.213C319.807 492.173 325.723 487.127 325.851 486.54C326.172 485.068 324.889 484.683 325.759 482.528C327.899 489.534 332.168 501.396 338.15 505.964C340.03 507.4 342.357 507.658 344.637 507.245C357.592 504.897 372.736 489.178 378.447 477.812C381.587 471.563 383.34 464.596 387.405 458.829C392.643 451.397 400.586 446.107 405.808 438.58L407.579 437.675ZM318.016 588.092C321.526 593.413 321.068 593.565 321.68 599.884L322.533 600.075C324.37 598.819 326.749 597.48 328.346 595.989C329.906 594.532 331.241 591.763 331.347 589.624C331.463 587.26 330.407 585.144 328.767 583.5C323.599 578.317 314.508 577.489 307.589 577.586C302.798 577.654 296.369 577.353 292.782 581.013C293.002 580.963 293.231 580.94 293.444 580.862C296.767 579.641 300.414 579.737 303.958 579.469C305.156 580.973 305.994 581.892 307.945 582.316C310.807 583.298 313.205 584.368 315.644 586.184C316.401 586.747 317.202 587.662 318.016 588.092ZM317.217 593.658C312.083 591.447 303.171 590.7 297.956 592.918C296.643 593.477 295.869 594.173 294.943 595.236L294.666 596.488C295.289 597.333 295.41 597.503 296.509 597.706C298.679 598.107 302.079 597.13 304.066 596.301C306.15 596.498 309.623 596.457 310.996 598.06C310.34 598.654 310.056 598.911 309.665 599.728C310.453 599.6 311.217 599.464 311.994 599.281C314.461 598.702 317.594 598.122 318.981 595.876C318.615 594.707 318.186 594.38 317.217 593.658Z"/>
	<path fill="#4E696D" d="M0 204.545L0.557393 204.504L0.511813 205.765C0.616361 214.908 1.14769 224.36 0.535371 233.473L0 233.535L0 204.545Z"/>
	<path fill="#374A58" d="M1023.49 221.815L1024 221.918L1024 228.509L1023.45 228.623L1023.49 221.815Z"/>
	<path fill="#7E9395" d="M1023.66 241.879C1023.37 237.613 1023.2 233.401 1024 229.18L1024 241.931L1023.66 241.879Z"/>
	<path fill="#102638" d="M0 233.535L0.535371 233.473C0.447619 241.451 0.170275 249.368 0.710601 257.341L0 257.488L0 233.535Z"/>
	<path fill="#7E9395" d="M1023.52 260.841C1022.96 256.147 1022.7 249.29 1024 244.756L1024 260.964L1023.52 260.841Z"/>
	<path fill="#FBF8F0" d="M742.87 339.707L742.988 339.218L742.402 339.398L742.711 338.533C742.721 338.693 742.693 338.859 742.741 339.012C742.996 339.817 743.48 340.494 743.701 341.364L743.912 342.223L744.73 342.307C745.544 341.304 745.283 341.075 745.255 339.833L745.693 339.07C746.075 340.504 746.448 341.176 746.006 342.615C739.967 344.118 733.175 344.277 726.969 344.871C716.077 345.856 705.198 346.968 694.333 348.209C675.536 311.818 637.71 267.96 597.834 255.222C569.118 246.269 538.022 249.08 511.376 263.036C485.58 276.488 464.833 300.676 456.302 328.575C445.313 364.511 452.837 406.602 461.395 442.236C464.429 454.869 467.7 467.568 472.249 479.751C469.826 483.88 460.177 496.12 456.533 499.137C456.349 498.221 455.863 497.722 455.325 496.977C459.318 490.946 465.027 485.121 469.885 479.698C456.393 440.276 442.391 375.019 452.413 333.444C459.273 304.983 478.425 278.75 503.556 263.639C529.347 248.132 561.883 243 591.03 250.434C609.997 255.272 626.05 265.095 640.884 277.6C665.035 297.957 680.221 319.094 696.271 346.141C701.285 345.649 740.27 342.52 742.43 341.515L742.87 339.707Z"/>
	<path fill="#D6D6CA" d="M477.901 480.87C476.007 471.532 472.519 462.206 470.054 452.963C464.472 432.022 459.835 410.589 457.833 388.98C454.558 353.642 458.742 321.962 482.335 293.761C500.042 272.74 525.358 259.595 552.738 257.203C580.596 254.719 604.778 263.276 628.056 277.868C623.199 289.707 619.054 301.949 614.696 313.985C606.249 310.109 597.577 307.519 588.327 306.462C564.582 303.656 540.715 310.607 522.189 325.723C506.159 338.351 495.944 356.947 493.882 377.249C491.674 399.258 498.435 421.226 512.636 438.184C528.894 457.872 552.072 468.828 577.171 471.126C568.207 477.737 560.835 486.887 553.355 495.104C547.953 501.002 542.438 506.794 536.812 512.479C517.529 532.263 497.084 550.99 478.009 570.942C476.132 572.905 473.59 575.23 472.829 577.895C472.762 578.129 472.711 578.367 472.65 578.602C470.498 586.767 470.55 596.688 469.337 605.23C467.386 617.566 459.064 664.686 453.272 672.948C449.169 678.802 439.238 686.163 433.38 690.657C420.347 651.652 412.534 606.463 407.32 565.584C416.178 555.812 424.631 545.626 433.355 535.727C444.688 522.866 455.864 509.984 466.482 496.52C470.38 491.578 474.954 486.444 477.901 480.87Z"/>
	<path fill="#374A58" d="M1023.52 260.841L1024 260.964L1024 271.513L1023.57 271.529C1023.45 267.976 1023.53 264.397 1023.52 260.841Z"/>
	<path fill="#FBF8F0" d="M651.882 495.614C676.621 462.255 702.259 436.818 742.04 422.541C742.863 423.034 743.224 423.037 743.603 423.95C676.81 448.211 659.029 494.701 616.409 544.712C570.498 598.586 516.998 650.237 458.743 690.589C448.054 697.993 433.61 708.005 421.93 713.052C429.356 705.739 440.337 700.428 449.135 694.715C459.245 688.132 469.085 681.145 478.631 673.768C518.52 643.204 550.092 613.37 584.716 577.079C603.188 557.719 622.18 537.34 637.398 515.287C636.396 507.881 636.363 500.202 635.645 492.74C634.096 474.801 630.015 457.172 623.524 440.377C630.692 430.808 637.202 421.472 640.749 409.884C646.349 391.842 644.579 372.316 635.825 355.575C625.962 337.264 609.142 323.695 589.158 317.931C571.303 312.674 552.874 315.202 536.663 324.113C520.324 333.094 508.812 348.422 503.794 366.292C497.933 387.399 501.702 410.018 514.089 428.084C515.981 430.86 517.962 433.651 520.169 436.188C522.087 438.391 524.33 440.3 525.782 442.857C525.542 442.779 525.279 442.755 525.064 442.624C523.244 441.513 521.161 438.801 519.732 437.191C509.639 426.038 502.994 412.199 500.601 397.349C497.664 378.617 501.926 358.746 513.19 343.361C524.466 328.108 541.281 317.893 560.015 314.916C579.653 311.909 598.882 317.825 614.736 329.533C630.847 341.429 641.888 358.844 644.723 378.739C648.152 402.806 639.553 421.323 625.45 440.096C635.093 460.945 638.352 490.156 639.127 513.068C642.751 507.863 646.428 502.696 650.158 497.566C650.151 479.581 644.616 459.259 639.307 442.21C638.274 438.894 634.544 431.758 634.129 429.559L634.704 429.489C643.363 437.214 650.842 482.863 651.882 495.614Z"/>
	<path fill="#29444D" d="M0 319.082L0.41634 318.987C1.54347 327.408 0.474787 336.876 0.393146 345.392L0.34821 389.705C-0.0330617 429.517 0.551715 469.364 0.620837 509.179L0.42256 806.885C0.137433 856.239 0.187254 905.595 0.572021 954.949C0.636547 977.956 0.281365 1001 0.6465 1024L0 1024L0 319.082Z"/>
	<path fill="#D6D6CA" d="M586.38 451.251C582.327 451.79 578.249 452.122 574.158 452.02C560.344 451.676 546.451 446.474 536.114 437.242C533.289 434.719 531.164 431.469 528.39 428.993C527.562 428.253 526.843 428.146 525.784 428.146C526.267 432.381 537.628 442.405 540.973 445.535C540.069 445.193 539.394 444.623 538.633 444.046C523.416 432.513 510.074 413.924 507.55 394.761C505.098 377.101 509.895 359.201 520.849 345.134C530.208 333.172 547.556 322.58 562.688 320.659C564.041 320.674 565.891 320.514 567.163 320.996C567.878 321.266 567.869 322.03 568.097 322.698L568.769 322.816C569.067 321.902 569.051 321.533 569.784 320.877C570.21 321.253 570.168 321.588 570.296 322.127C569.556 323.185 569.265 323.656 567.938 324.034C567.061 324.284 565.99 324.038 565.237 323.614C565.632 323.268 566.018 322.912 566.425 322.581C566.532 322.494 566.649 322.42 566.761 322.339L566.354 321.645C564.737 322.435 563.628 324.689 562.643 326.159C566.572 325.468 570.062 325.191 574.047 325.41C569.939 325.945 565.448 327.817 561.328 327.485L560.917 326.884C561.062 326.66 561.685 325.685 561.844 325.512C562.02 325.321 562.248 325.187 562.45 325.025L562.236 324.548L561.331 324.729C560.226 325.713 560.398 325.953 560.219 327.449C559.111 328.871 557.611 329.104 556.03 329.928L555.15 330.391C573.496 327.086 589.58 326.871 606.156 336.684C620.385 345.107 629.651 357.093 633.726 373.194C637.907 390.113 635.192 407.999 626.181 422.915C617.003 438.254 603.527 446.992 586.38 451.251ZM571.707 330.338C538.997 332.497 514.156 360.642 516.075 393.367C517.995 426.092 545.957 451.14 578.696 449.46C611.775 447.763 637.141 419.445 635.201 386.379C633.261 353.313 604.759 328.155 571.707 330.338Z"/>
	<path fill="#29444D" d="M1023.44 327.82L1024 327.979L1024 408.582C1022.65 405.778 1023.51 337.498 1023.44 327.82Z"/>
	<path fill="#102638" d="M578.696 449.46C545.957 451.14 517.995 426.092 516.075 393.367C514.156 360.642 538.997 332.497 571.707 330.338C604.759 328.155 633.261 353.313 635.201 386.379C637.141 419.445 611.775 447.763 578.696 449.46ZM596.337 355.762L594.801 357.39C592.499 356.105 588.576 354.678 587.011 352.716C587.506 348.943 590.902 343.899 588.736 340.239C587.635 338.378 585.24 337.769 583.249 337.534C577.178 336.819 569.607 337.274 563.98 339.758L568.305 352.161C564.831 353.343 561.331 354.469 557.966 355.938C556.065 352.339 554.416 348.631 552.569 345.011C545.873 348.018 536.972 354.098 534.06 361.122C533.67 362.062 533.422 363.169 533.798 364.159C534.966 367.243 541.228 368.892 544.142 369.776C544.511 369.888 544.885 369.986 545.257 370.086C549.584 361.925 556.558 356.947 565.291 354.24C572.907 351.879 580.597 351.596 587.982 354.877C590.342 355.926 593.116 357.594 595.684 357.966C599.466 359.58 607.752 369.159 609.173 368.999L609.892 368.265C611.696 368.147 618.617 363.885 621.158 363.05C619.261 361.155 617.86 358.845 616.195 356.75C612.834 352.523 609.157 349.511 604.73 346.467C601.402 349.207 598.899 352.321 596.337 355.762ZM605.691 395.414C608.673 381.532 601.443 367.475 588.416 361.827C575.389 356.18 560.186 360.512 552.093 372.179C544.001 383.845 545.267 399.602 555.119 409.826L555.341 411.536C557.307 414.159 559.437 415.812 562.343 417.296C566.891 419.619 574.913 422.882 579.975 421.132C589.277 417.915 591.733 419.213 599.639 411.571C603.454 407.883 607.275 402.792 607.394 397.329L606.911 397.394C606.508 399.028 606.196 400.059 605.104 401.358C605.82 399.625 606.068 397.255 605.691 395.414ZM623.368 373.469C620.692 376.13 617.7 377.55 614.293 379.016C615.26 385.724 615.443 392.147 614.171 398.828L619.107 400.231C621.141 400.619 623.175 401.047 625.222 401.358C626.001 393.898 627.652 380.614 623.715 373.865C623.627 373.713 623.484 373.601 623.368 373.469ZM527.752 378.16C526.256 386.084 525.903 394.091 528.426 401.836C532.205 400.911 536.048 399.765 539.882 399.126C540.14 399.272 540.413 399.396 540.658 399.563C540.724 399.608 540.754 399.69 540.802 399.754L541.482 399.067L541.341 399.305C539.507 392.436 540.004 385.423 540.662 378.42C536.337 378.478 532.068 378.519 527.752 378.16ZM544.891 409.161C541.973 411.247 537.638 413.652 535.884 416.854C535.672 418.55 537.158 420.288 538.144 421.54C541.058 425.236 545.944 430.709 550.277 432.543L551.319 432.349L560.686 423.67C553.862 419.979 549.198 415.619 544.891 409.161ZM609.118 410.866C605.429 415.636 600.968 418.987 596.656 423.099C598.7 425.629 601.886 430.692 605.195 431.296C605.855 430.927 606.534 430.605 607.116 430.12C612.943 425.403 616.766 420.593 620.663 414.196C616.75 413.262 612.844 412.415 609.118 410.866ZM585.703 427.769C580.33 428.337 575.504 428.57 570.156 427.771C569.688 431.922 569.348 436.14 568.515 440.237C571.206 440.617 573.907 441.076 576.619 441.266C582.325 441.099 587.397 440.414 592.639 438.016C590.366 434.797 588.684 430.635 586.194 427.738L585.703 427.769Z"/>
	<path fill="#D6D6CA" d="M563.98 339.758C569.607 337.274 577.178 336.819 583.249 337.534C585.24 337.769 587.635 338.378 588.736 340.239C590.902 343.899 587.506 348.943 587.011 352.716C588.576 354.678 592.499 356.105 594.801 357.39L595.684 357.966C593.116 357.594 590.342 355.926 587.982 354.877C580.597 351.596 572.907 351.879 565.291 354.24C556.558 356.947 549.584 361.925 545.257 370.086C544.885 369.986 544.511 369.888 544.142 369.776C541.228 368.892 534.966 367.243 533.798 364.159C533.422 363.169 533.67 362.062 534.06 361.122C536.972 354.098 545.873 348.018 552.569 345.011C554.416 348.631 556.065 352.339 557.966 355.938C561.331 354.469 564.831 353.343 568.305 352.161L563.98 339.758Z"/>
	<path fill="#FBF8F0" d="M742.04 422.541C749.902 420.223 757.654 418.154 765.751 416.794C763.527 404.768 762.124 392.629 759.614 380.652C757.939 372.659 755.576 365.175 753.28 357.367C752.266 353.917 751.546 350.537 750.313 347.143C749.785 345.692 749.535 344.712 750.38 343.387C751.485 343.518 751.796 343.405 752.507 344.342C757.267 350.613 764.966 384.861 766.416 393.531C767.79 401.753 768.313 410.136 769.749 418.331C760.708 419.217 752.274 421.333 743.603 423.95C743.224 423.037 742.863 423.034 742.04 422.541Z"/>
	<path fill="#D6D6CA" d="M596.337 355.762C598.899 352.321 601.402 349.207 604.73 346.467C609.157 349.511 612.834 352.523 616.195 356.75C617.86 358.845 619.261 361.155 621.158 363.05C618.617 363.885 611.696 368.147 609.892 368.265C607.112 362.752 601.322 359.091 596.337 355.762Z"/>
	<path fill="#06131B" d="M594.801 357.39L596.337 355.762C601.322 359.091 607.112 362.752 609.892 368.265L609.173 368.999C607.752 369.159 599.466 359.58 595.684 357.966L594.801 357.39Z"/>
	<path fill="#FBF8F0" d="M555.119 409.826C545.267 399.602 544.001 383.845 552.093 372.179C560.186 360.512 575.389 356.18 588.416 361.827C601.443 367.475 608.673 381.532 605.691 395.414C603.378 406.177 595.319 414.786 584.732 417.803C574.145 420.821 562.758 417.753 555.119 409.826ZM571.702 362.469C557.125 365.19 547.484 379.175 550.123 393.767C552.762 408.359 566.692 418.08 581.299 415.523C596.023 412.946 605.839 398.88 603.178 384.17C600.518 369.461 586.397 359.725 571.702 362.469Z"/>
	<path fill="#D6D6CA" d="M581.299 415.523C566.692 418.08 552.762 408.359 550.123 393.767C547.484 379.175 557.125 365.19 571.702 362.469C586.397 359.725 600.518 369.461 603.178 384.17C605.839 398.88 596.023 412.946 581.299 415.523Z"/>
	<path fill="#FBF8F0" d="M286.383 367.078C284.693 367.991 282.971 368.846 281.222 369.642C275.194 372.396 258.951 377.795 252.706 374.936C251.971 374.6 252.194 374.622 251.931 373.748C252.773 372.67 258.214 373.119 259.925 372.926C268.739 371.933 277.435 368.662 285.444 364.99L286.383 367.078Z"/>
	<path fill="#D6D6CA" d="M614.293 379.016C617.7 377.55 620.692 376.13 623.368 373.469C623.484 373.601 623.627 373.713 623.715 373.865C627.652 380.614 626.001 393.898 625.222 401.358C623.175 401.047 621.141 400.619 619.107 400.231L614.171 398.828C615.443 392.147 615.26 385.724 614.293 379.016Z"/>
	<path fill="#D6D6CA" d="M528.426 401.836C525.903 394.091 526.256 386.084 527.752 378.16C532.068 378.519 536.337 378.478 540.662 378.42C540.004 385.423 539.507 392.436 541.341 399.305L541.482 399.067L540.802 399.754C540.754 399.69 540.724 399.608 540.658 399.563C540.413 399.396 540.14 399.272 539.882 399.126C536.048 399.765 532.205 400.911 528.426 401.836Z"/>
	<path fill="#06131B" d="M605.691 395.414C606.068 397.255 605.82 399.625 605.104 401.358C606.196 400.059 606.508 399.028 606.911 397.394L607.394 397.329C607.275 402.792 603.454 407.883 599.639 411.571C591.733 419.213 589.277 417.915 579.975 421.132C574.913 422.882 566.891 419.619 562.343 417.296C559.437 415.812 557.307 414.159 555.341 411.536L555.119 409.826C562.758 417.753 574.145 420.821 584.732 417.803C595.319 414.786 603.378 406.177 605.691 395.414Z"/>
	<path fill="#D6D6CA" d="M551.319 432.349L550.277 432.543C545.944 430.709 541.058 425.236 538.144 421.54C537.158 420.288 535.672 418.55 535.884 416.854C537.638 413.652 541.973 411.247 544.891 409.161C549.198 415.619 553.862 419.979 560.686 423.67L551.319 432.349Z"/>
	<path fill="#D6D6CA" d="M596.656 423.099C600.968 418.987 605.429 415.636 609.118 410.866C612.844 412.415 616.75 413.262 620.663 414.196C616.766 420.593 612.943 425.403 607.116 430.12C606.534 430.605 605.855 430.927 605.195 431.296C601.886 430.692 598.7 425.629 596.656 423.099Z"/>
	<path fill="#102638" d="M407.579 437.675C393.795 429.197 363.738 425.436 348.094 429.184C332.844 432.838 322.221 441.935 308.959 449.39C303.805 452.287 298.339 454.236 292.797 456.228C294 467.444 293.374 479.574 298.999 489.7C301.163 493.595 304.952 496.353 306.778 500.479C291.099 485.047 293.06 469.832 289.27 449.72C293.222 446.2 298.3 443.793 302.712 440.873C315.521 432.396 328.261 421.821 343.729 418.863C369.5 413.935 392.325 425.571 412.98 439.601L407.579 437.675Z"/>
	<path fill="#7E9395" d="M292.797 456.228C298.339 454.236 303.805 452.287 308.959 449.39C322.221 441.935 332.844 432.838 348.094 429.184C363.738 425.436 393.795 429.197 407.579 437.675L405.808 438.58C403.02 439.152 385.615 458.668 383.172 461.831C367.531 453.685 351.299 446.895 333.493 452.533C327.157 454.54 323.213 458.028 318.907 462.933C320.182 460.597 321.412 458.111 322.913 455.919C324.856 453.081 328.071 450.085 329.337 446.937C323.721 451.285 319.133 457.243 316.04 463.606C314.356 467.072 312.956 470.442 310.526 473.476C311.774 473.773 311.162 473.7 312.358 473.721L312.782 474.268C311.103 476.973 308.655 479.054 306.373 481.246C308.752 479.885 311.054 478.476 313.657 477.578C315.338 475.144 316.879 472.614 319.15 470.687L319.56 471.392C319.123 472.315 318.815 473.273 318.035 473.949L317.079 474.055C316.244 475.296 315.231 476.881 315.627 478.458C315.662 478.598 315.736 478.725 315.791 478.859C317.46 478.741 318.233 478.221 319.313 476.937C320.051 476.06 320.783 475.142 321.281 474.106C321.412 473.979 321.55 473.858 321.675 473.725C322.38 472.974 322.841 472.138 323.368 471.259L323.906 471.226C324.076 475.23 324.889 478.652 325.759 482.528C324.889 484.683 326.172 485.068 325.851 486.54C325.723 487.127 319.807 492.173 318.858 493.213C318.515 496.641 314.998 513.648 313.2 515.308C311.076 510.444 310.285 506.141 307.284 501.593C306.776 500.823 306.892 501.167 306.778 500.479C304.952 496.353 301.163 493.595 298.999 489.7C293.374 479.574 294 467.444 292.797 456.228Z"/>
	<path fill="#D6D6CA" d="M570.156 427.771C575.504 428.57 580.33 428.337 585.703 427.769L586.194 427.738C588.684 430.635 590.366 434.797 592.639 438.016C587.397 440.414 582.325 441.099 576.619 441.266C573.907 441.076 571.206 440.617 568.515 440.237C569.348 436.14 569.688 431.922 570.156 427.771Z"/>
	<path fill="#102638" d="M383.172 461.831C385.615 458.668 403.02 439.152 405.808 438.58C400.586 446.107 392.643 451.397 387.405 458.829C383.34 464.596 381.587 471.563 378.447 477.812C372.736 489.178 357.592 504.897 344.637 507.245C342.357 507.658 340.03 507.4 338.15 505.964C332.168 501.396 327.899 489.534 325.759 482.528C324.889 478.652 324.076 475.23 323.906 471.226L323.368 471.259C322.841 472.138 322.38 472.974 321.675 473.725C321.55 473.858 321.412 473.979 321.281 474.106L320.622 473.893C320.198 474.553 320.053 474.785 319.373 475.221L318.035 473.949C318.815 473.273 319.123 472.315 319.56 471.392L319.15 470.687C316.879 472.614 315.338 475.144 313.657 477.578C311.054 478.476 308.752 479.885 306.373 481.246C308.655 479.054 311.103 476.973 312.782 474.268L312.358 473.721C311.162 473.7 311.774 473.773 310.526 473.476C312.956 470.442 314.356 467.072 316.04 463.606C319.133 457.243 323.721 451.285 329.337 446.937C328.071 450.085 324.856 453.081 322.913 455.919C321.412 458.111 320.182 460.597 318.907 462.933C323.213 458.028 327.157 454.54 333.493 452.533C351.299 446.895 367.531 453.685 383.172 461.831ZM372.846 460.798C375.797 467.121 376.066 472.636 376.18 479.495L378.21 474.374C379.58 470.718 380.91 467.056 382.58 463.523C379.366 462.712 375.907 462.064 372.846 460.798ZM340.579 464.581C336.757 466.643 334.609 468.97 333.387 473.218C331.976 478.122 332.861 483.922 335.348 488.343C336.852 491.018 339.525 493.815 342.647 494.484C344.15 494.805 345.967 494.601 347.477 494.395C351.449 491.987 353.777 488.806 354.963 484.268C356.164 479.672 355.907 474.402 353.385 470.274C351.687 467.494 348.793 465.231 345.536 464.665C343.955 464.39 342.177 464.503 340.579 464.581Z"/>
	<path fill="#7E9395" d="M376.18 479.495C376.066 472.636 375.797 467.121 372.846 460.798C375.907 462.064 379.366 462.712 382.58 463.523C380.91 467.056 379.58 470.718 378.21 474.374L376.18 479.495Z"/>
	<path fill="#D6D6CA" d="M694.845 491.262C692.977 481.958 691.181 471.61 691.92 462.116C693.972 463.189 693.535 464.963 693.561 467.049C693.945 498.402 709.783 531.369 719.663 560.584C695.659 581.2 675.745 606.144 660.955 634.117C656.588 642.46 653.488 651.41 649.047 659.686L648.66 660.4C649.594 655.395 652.332 650.811 652.711 645.729C653.321 637.556 652.732 628.956 652.812 620.729C652.905 604.332 653.422 587.94 654.36 571.569C654.829 563.411 654.972 554.403 657.193 546.519C657.985 543.709 659.245 541.474 660.798 539.046C662.421 544.445 663.538 550.031 664.937 555.496C667.229 564.443 669.812 573.337 672.283 582.238C673.963 588.291 675.404 594.594 677.861 600.381C668.019 613.719 657.488 629.403 653.47 645.634C656.612 639.781 659.278 633.673 662.456 627.831C666.332 620.707 670.788 614.079 675.419 607.435C687.816 589.687 701.533 574.612 717.411 559.967C714.031 549.815 709.725 539.915 706.122 529.828C701.812 517.757 698.414 505.515 695.262 493.098C693.211 494.198 691.253 495.462 689.407 496.879C679.704 504.205 671.134 513.578 664.066 523.438C657.931 531.997 651.468 542.408 648.49 552.585C645.467 562.914 646.324 575.311 646.129 586.045C645.857 599.206 645.703 612.369 645.666 625.533C645.667 633.086 647.095 644.385 646.116 651.16C643.18 640.634 643.786 563.506 646.623 553.212C652.545 531.73 675.591 502.246 694.845 491.262Z"/>
	<path fill="#FBF8F0" d="M479.595 578.213C501.007 557.631 521.961 536.647 543.039 515.718C551.733 507.033 560.579 498.502 569.573 490.129C575.518 484.563 581.592 478.636 588.226 473.891C594.485 469.414 602.143 466.577 608.941 462.954L609.299 463.261C611.63 470.23 612.757 498.664 612.8 506.998C606.017 518.537 592.522 531.581 583.475 541.546C546.364 582.423 506.968 621.033 467.573 659.685C466.993 660.239 466.571 660.71 465.84 661.057C466.075 657.111 467.743 652.758 468.712 648.911C470.358 642.368 471.933 635.737 473.181 629.105C476.347 612.269 477.518 595.18 479.595 578.213ZM607.545 467.619C602.182 470.141 596.175 472.369 591.278 475.678C578.619 484.231 566.389 497.362 555.469 508.187L509.856 553.342C500.851 562.238 491.97 571.636 482.386 579.884C481.432 594.946 479.564 609.937 476.792 624.773C475.396 632.323 471.701 643.781 471.582 650.856L473.475 649.591C501.897 622.092 529.801 594.062 557.172 565.517C575.568 546.276 594.241 526.531 610.596 505.508C610.23 500.583 608.581 468.602 607.545 467.619Z"/>
	<path fill="#FBF8F0" d="M347.477 494.395C345.967 494.601 344.15 494.805 342.647 494.484C339.525 493.815 336.852 491.018 335.348 488.343C332.861 483.922 331.976 478.122 333.387 473.218C334.609 468.97 336.757 466.643 340.579 464.581C342.177 464.503 343.955 464.39 345.536 464.665C348.793 465.231 351.687 467.494 353.385 470.274C355.907 474.402 356.164 479.672 354.963 484.268C353.777 488.806 351.449 491.987 347.477 494.395Z"/>
	<path fill="#102638" d="M482.386 579.884C491.97 571.636 500.851 562.238 509.856 553.342L555.469 508.187C566.389 497.362 578.619 484.231 591.278 475.678C596.175 472.369 602.182 470.141 607.545 467.619C608.581 468.602 610.23 500.583 610.596 505.508C594.241 526.531 575.568 546.276 557.172 565.517C529.801 594.062 501.897 622.092 473.475 649.591L471.582 650.856C471.701 643.781 475.396 632.323 476.792 624.773C479.564 609.937 481.432 594.946 482.386 579.884Z"/>
	<path fill="#06131B" d="M321.281 474.106C320.783 475.142 320.051 476.06 319.313 476.937C318.233 478.221 317.46 478.741 315.791 478.859C315.736 478.725 315.662 478.598 315.627 478.458C315.231 476.881 316.244 475.296 317.079 474.055L318.035 473.949L319.373 475.221C320.053 474.785 320.198 474.553 320.622 473.893L321.281 474.106Z"/>
	<path fill="#FBF8F0" d="M451.109 501.809C452.485 500.173 453.891 498.562 455.325 496.977C455.863 497.722 456.349 498.221 456.533 499.137L454.387 501.796C453.282 501.588 452.225 501.733 451.109 501.809Z"/>
	<path fill="#FBF8F0" d="M410.818 548.492C414.874 542.903 420.1 537.707 424.637 532.477L451.109 501.809C452.225 501.733 453.282 501.588 454.387 501.796C444.793 513.433 434.977 524.885 424.944 536.146C421.092 540.55 416.951 546.401 412.496 550.137L410.818 548.492Z"/>
	<path fill="#728A8D" d="M751.929 606.757C767.878 597.49 788.249 589.454 805.388 582.171C852.08 562.193 900.104 545.483 949.112 532.161C973.919 525.476 999.217 520.676 1024 514L1024 979.308C1020.12 963.485 1017.51 947.499 1012.91 931.804C997.22 878.145 975.037 832.57 939.827 788.987C925.644 771.432 910.696 755.504 892.923 741.553C883.189 741.054 873.56 739.322 863.779 738.931C854.649 727.478 845.657 715.914 836.807 704.244C830.619 695.955 824.393 686.225 817.107 678.903C811.18 679.048 805.588 680.76 800.101 682.866C793.346 674.343 787.459 665.248 781.502 656.164C770.896 639.992 761.003 623.858 751.929 606.757Z"/>
	<path fill="#FBF8F0" d="M412.496 550.137C410.918 552.111 408.066 556.808 405.876 557.735L405.464 556.815C405.912 553.34 408.57 550.98 410.818 548.492L412.496 550.137Z"/>
	<path fill="#D6D6CA" d="M616.946 563.894C618.216 561.414 619.67 559.097 621.164 556.749C621.337 556.891 621.53 557.012 621.682 557.177C623.953 559.638 625.162 566.362 625.951 569.625C630.85 589.876 631.674 610.093 632.143 630.828C633.113 673.624 629.853 716.154 626.669 758.795C625.103 779.767 624.656 801.468 621.489 822.232C618.673 825.554 616.22 828.742 613.905 832.442C613.537 832.798 613.788 832.625 613.063 832.798C617.399 812.078 617.555 791.082 619.329 770.028C620.541 755.63 622.154 741.27 623.25 726.861C625.874 693.56 626.748 660.145 625.868 626.753C625.375 612.459 625.066 597.907 622.469 583.805C621.209 576.965 619.165 570.465 616.946 563.894Z"/>
	<path fill="#FBF8F0" d="M723.41 568.193C729.337 581.577 735.608 594.806 742.216 607.867C746.034 614.918 756.511 637.462 761.058 642.224C753.757 645.476 743.93 656.64 738.521 662.82L738.78 663.429L737.944 664.047L738.187 663.273L739.084 663.254C742.495 660.262 745.833 657.124 749.396 654.316C753.282 651.253 759.113 648.107 762.17 644.457L778.918 671.018C782.803 677.077 787.458 683.219 790.292 689.844C781.848 682.523 768.059 657.344 761.512 646.715C752.85 654.728 743.059 661.262 734.637 669.674C714.274 690.014 693.796 722.613 681.221 748.509C676.602 758.023 672.749 767.737 668.759 777.515C668.774 777.353 668.786 777.19 668.805 777.029C672.127 748.689 716.179 686.017 735.973 663.35C742.751 655.643 750.137 648.494 758.06 641.97C751.816 631.357 746.475 620.081 740.844 609.125C736.878 601.673 733.099 594.124 729.508 586.484C727.025 581.278 724.765 575.838 721.762 570.908C714.154 580.287 705.378 588.834 697.439 597.954C682.847 614.718 670.779 632.593 660.052 652.071C655.162 660.951 649.758 670.654 648.466 680.842C646.941 692.868 650.266 707.397 652.34 719.276C654.347 730.771 656.321 742.305 658.566 753.755C659.674 759.411 662.604 769.184 662.402 774.654C662.278 774.483 662.15 774.315 662.031 774.14C657.558 767.631 647.712 701.183 646.981 690.343C646.696 686.106 646.838 681.938 647.692 677.77C649.617 668.38 654.147 660.109 658.641 651.754C672.997 625.063 687.055 607.135 707.093 584.822C712.122 579.222 717.148 572.372 723.41 568.193Z"/>
	<path fill="#728A8D" d="M303.958 579.469C300.414 579.737 296.767 579.641 293.444 580.862C293.231 580.94 293.002 580.963 292.782 581.013C296.369 577.353 302.798 577.654 307.589 577.586C314.508 577.489 323.599 578.317 328.767 583.5C330.407 585.144 331.463 587.26 331.347 589.624C331.241 591.763 329.906 594.532 328.346 595.989C326.749 597.48 324.37 598.819 322.533 600.075L321.68 599.884C321.068 593.565 321.526 593.413 318.016 588.092C318.83 588.758 319.644 589.36 320.521 589.94L320.886 589.59C319.928 587.915 319.002 586.222 318.108 584.511C320.03 585.961 321.831 587.636 323.663 589.201L324.513 589.114C324.62 588.891 325.048 588.044 325.08 587.822C325.253 586.608 324.283 584.951 323.365 584.225C318.238 580.172 310.296 578.672 303.958 579.469Z"/>
	<path fill="#7E9395" d="M303.958 579.469C310.296 578.672 318.238 580.172 323.365 584.225C324.283 584.951 325.253 586.608 325.08 587.822C325.048 588.044 324.62 588.891 324.513 589.114L323.663 589.201C321.831 587.636 320.03 585.961 318.108 584.511C319.002 586.222 319.928 587.915 320.886 589.59L320.521 589.94C319.644 589.36 318.83 588.758 318.016 588.092C317.202 587.662 316.401 586.747 315.644 586.184C313.205 584.368 310.807 583.298 307.945 582.316C305.994 581.892 305.156 580.973 303.958 579.469Z"/>
	<path fill="#06131B" d="M304.066 596.301C302.079 597.13 298.679 598.107 296.509 597.706C295.41 597.503 295.289 597.333 294.666 596.488L294.943 595.236C295.869 594.173 296.643 593.477 297.956 592.918C303.171 590.7 312.083 591.447 317.217 593.658C314.206 596.306 308.042 595.153 304.066 596.301Z"/>
	<path fill="#102638" d="M317.217 593.658C318.186 594.38 318.615 594.707 318.981 595.876C317.594 598.122 314.461 598.702 311.994 599.281C311.217 599.464 310.453 599.6 309.665 599.728C310.056 598.911 310.34 598.654 310.996 598.06C309.623 596.457 306.15 596.498 304.066 596.301C308.042 595.153 314.206 596.306 317.217 593.658Z"/>
	<path fill="#D6D6CA" d="M667.36 763.538C662.85 750.468 659.774 726.865 658.024 712.742C656.702 702.074 654.87 688.462 656.31 677.86C658.773 659.729 679.068 630.781 690.404 616.254C692.576 617.464 713.256 678.739 715.457 686.109C699.044 707.085 684.366 729.13 672.722 753.143C671.049 756.688 669.299 760.131 667.36 763.538Z"/>
	<path fill="#D6D6CA" d="M568.435 740.395C570.415 733.379 573.218 726.558 575.212 719.5C580.585 700.484 584.202 681.521 586.912 661.962C587.948 654.128 588.685 646.258 589.123 638.368C589.428 632.582 589.229 626.432 590.427 620.765C595.163 624.903 599.987 640.577 601.875 646.947C604.882 657.095 607.66 668.33 608.065 678.9C608.335 685.921 607.284 693.078 606.329 700.025C602.923 724.799 596.952 751.206 584.844 773.317L583.987 773.798C582.757 772.889 570.888 744.736 568.435 740.395Z"/>
	<path fill="#06131B" d="M311.969 631.616C315.057 630.999 318.016 630.889 321.136 631.391C333.99 632.184 350.473 636.969 363.362 639.733C359.628 641.059 357.36 639.618 354.542 642.832L354.204 642.528L354.307 640.382L352.5 640.016C349.092 639.515 345.733 638.859 342.359 638.168C334.172 636.299 326.027 634.474 317.702 633.324L317.166 633.276C316.129 633.013 316.56 633.077 315.487 632.988C314.446 632.911 313.406 632.824 312.366 632.727L311.969 631.616Z"/>
	<path fill="#7E9395" d="M325.844 646.493C321.38 644.777 315.42 641.345 312.973 637.012C312.284 635.792 312.307 635.255 312.709 633.958C314.016 632.979 315.612 633.251 317.166 633.276L317.702 633.324C326.027 634.474 334.172 636.299 342.359 638.168C345.733 638.859 349.092 639.515 352.5 640.016C351.432 642.101 350.191 645.046 347.948 646.073C347.8 646.141 347.639 646.171 347.485 646.219C346.49 645.569 346.601 645.54 346.37 644.427C346.162 643.428 346.187 642.388 346.181 641.371C345.501 642.532 344.657 646.01 343.824 646.397C343.78 645.225 343.751 644.052 343.738 642.879C342.77 643.577 342.769 643.583 342.45 644.734L342.837 645.949C342.123 646.915 341.278 647.28 340.254 647.866L339.626 647.872C339.437 646.834 339.331 647.279 339.683 646.616L340.015 645.979L340.255 645.532C340.852 644.396 341.091 643.619 341.174 642.307C341.042 642.423 340.896 642.525 340.779 642.655C339.38 644.216 339.681 646.533 337.967 647.918L337.239 647.86L336.775 646.61L336.409 647.096C336.037 647.582 335.657 648.035 335.25 648.49L334.383 648.097C334.663 645.768 336.512 643.39 336.349 641.177L335.742 641.024C334.744 643.13 334.092 646.628 332.593 648.284L331.609 648.375C330.956 647.692 330.326 647.018 329.741 646.275L329.393 647.425C328.73 647.575 328.376 647.656 327.691 647.568L325.844 646.493Z"/>
	<path fill="#D6D6CA" d="M532.353 691.657C542.448 669.253 558.448 651.545 576.087 634.834L576.521 634.969C577.784 637.97 575.98 646.634 575.571 650.067C572.503 675.823 568.788 700.91 561.313 725.815C557.783 720.218 553.89 714.859 549.66 709.771C544.216 703.328 538.53 697.399 532.353 691.657Z"/>
	<path fill="#06131B" d="M762.17 644.457C759.113 648.107 753.282 651.253 749.396 654.316C745.833 657.124 742.495 660.262 739.084 663.254L738.187 663.273L737.944 664.047L738.78 663.429L738.521 662.82C743.93 656.64 753.757 645.476 761.058 642.224L762.17 644.457Z"/>
	<path fill="#728A8D" d="M349.995 673.933C353.511 672.288 361.173 666.56 364.507 666.395C366.098 666.317 366.775 667.364 367.873 668.34C369.482 670.587 370.095 673.691 369.583 676.394C368.804 680.509 366.374 683.581 363.483 686.428C360.922 683.293 357.606 678.074 353.947 676.417C352.55 675.823 351.255 674.79 349.995 673.933Z"/>
	<path fill="#FBF8F0" d="M526.298 688.684C525.129 687.677 524.715 687.564 524.388 686.013C525.969 681.296 530.882 677.443 534.349 674.005L534.412 674.053C534.477 674.245 534.614 674.426 534.606 674.628C534.602 674.725 528.054 685.681 527.142 688.663L526.298 688.684Z"/>
	<path fill="#D6D6CA" d="M679.871 765.138C686.277 757.306 690.209 747.667 695.117 738.861C702.359 725.865 710.62 714.013 718.957 701.727C723.541 694.972 728.021 687.152 733.836 681.389L734.294 681.898C733.524 685.669 723.358 698.627 720.537 702.671C723.447 709.671 727.236 716.258 730.078 723.287C724.712 727.994 718.931 732.323 713.435 736.894C704.527 744.362 695.722 751.951 687.022 759.659L679.871 765.138Z"/>
	<path fill="#D6D6CA" d="M528.774 968.42C530.981 959.605 533.117 949.572 536.85 941.298C539.64 935.112 552.867 921.415 557.832 915.668C563.165 909.437 568.399 903.12 573.531 896.722C588.754 877.883 603.513 858.63 619.353 840.297C627.688 830.65 636.124 820.925 644.998 811.776C653.886 802.613 663.317 793.875 672.52 785.022C699.654 758.924 728.119 733.364 760.26 713.509C776.331 703.581 793.633 695.408 811.165 688.426L812.692 688.511C814.131 689.336 815.057 690.576 816.055 691.862C821.801 699.264 826.827 707.25 832.509 714.715C837.5 721.272 843.253 727.337 847.902 734.15C849.034 735.809 849.593 736.96 849.225 738.968L848.53 739.095C846.03 736.846 843.084 731.173 840.781 728.122C831.205 715.433 821.408 703.039 812.095 690.134C796.785 696.868 750.446 717.189 742.364 730.324C736.536 739.795 736.096 750.237 727.182 758.045C716.835 767.109 705.37 775.003 694.447 783.352C683.848 791.481 673.603 800.062 663.741 809.071C627.784 841.364 597.586 879.731 567.369 917.267C558.428 928.089 549.84 939.197 541.618 950.575C537.327 956.458 533.511 962.915 528.774 968.42Z"/>
	<path fill="#FBF8F0" d="M639.577 777.642C639.632 768.913 640.273 708.969 641.497 705.442C643.233 717.369 641.802 733.74 641.673 746.307C641.562 757.067 642.41 768.608 641.076 779.258C640.903 778.075 640.782 777.025 640.858 775.827L640.931 774.812L640.324 775.568L640.46 776.452L639.577 777.642Z"/>
	<path fill="#D6D6CA" d="M588.4 790.472C595.323 777.959 602.057 765.959 606.787 752.398C609.646 744.2 611.339 735.628 614.242 727.447C614.331 731.297 613.303 735.774 612.791 739.635C611.63 748.386 610.374 757.141 609.419 765.918C608.151 777.574 607.559 789.326 606.542 801.009C606.084 806.271 605.949 812.428 604.424 817.458C601.723 826.365 590.23 843.799 584.46 851.527C584.163 844.511 587.035 834.935 587.848 827.629C589.229 815.215 588.915 802.92 588.4 790.472Z"/>
	<path fill="#728A8D" d="M297.419 1024C307.44 1008.23 317.423 992.35 328.058 976.991C374.747 908.656 430.098 846.661 492.727 792.556C508.39 779.199 524.8 766.888 541.238 754.51C547.707 749.639 554.418 744.959 560.722 739.887C564.164 745.873 566.886 752.309 569.638 758.635C573.372 767.221 577.167 775.918 579.238 785.084C584.416 808.007 580.07 837.257 573.961 859.899C571.489 869.059 567.199 887.304 562.665 894.76C557.35 903.501 548.557 912.146 541.873 920.02C537.493 925.179 531.359 930.992 528.197 936.964C526.087 940.95 525.213 945.812 524.086 950.15C521.847 958.766 517.766 976.627 513.687 983.787C511.786 987.125 508.918 989.316 505.965 991.64C497.155 998.575 493.543 1001.86 490.327 1013.06C489.289 1016.67 488.074 1020.34 487.24 1024L297.419 1024Z"/>
	<path fill="#FBF8F0" d="M816.1 752.491C841.453 747.019 864.773 749.286 890.212 751.625C896.775 758.199 903.673 764.584 909.933 771.441C927.742 790.743 943.555 811.095 957.315 833.469C970.088 851.287 979.037 872.439 987.8 892.445C989.995 897.455 993.005 902.981 994.478 908.241L993.492 909.45L994.545 909.306L994.128 909.598C994.025 909.306 993.933 909.01 993.819 908.723C991.598 903.107 988.752 897.599 986.209 892.111C976.924 872.075 966.64 852.974 955.098 834.155C941.487 813.405 927.522 793.821 910.679 775.54C903.591 768.182 896.576 760.729 889.257 753.598C881.849 753.582 874.261 752.292 866.853 751.76C850.6 750.594 832.947 751.121 817.016 754.701C816.505 753.975 816.355 753.332 816.1 752.491Z"/>
	<path fill="#D6D6CA" d="M817.016 754.701L817.371 755.586C819.607 761.314 822.133 768.288 819.387 774.263C818.785 775.572 817.907 775.982 816.675 776.626C813.072 778.511 809.241 779.338 805.294 780.16C790.984 783.138 777.121 786.773 763.587 792.413C755.263 795.882 746.885 800.629 738.325 803.348C737.048 803.754 736.293 803.889 735.124 803.225C733.834 802.492 733.156 801.485 732.815 800.048C731.639 795.107 735.684 787.009 738.321 782.851C745.642 771.308 801.221 755.472 816.1 752.491C816.355 753.332 816.505 753.975 817.016 754.701Z"/>
	<path fill="#FBF8F0" d="M639.577 777.642L640.46 776.452L640.324 775.568L640.931 774.812L640.858 775.827C640.782 777.025 640.903 778.075 641.076 779.258C641.247 784.206 641.297 802.932 638.798 806.423C638.098 797.11 639.321 787.027 639.577 777.642Z"/>
	<path fill="#D6D6CA" d="M627.635 916.238L627.811 914.618C626.403 915.021 625.757 915.97 624.879 917.112C618.574 925.316 613.109 934.489 607.248 943.048C600.315 953.17 592.906 962.983 586.157 973.225C586.038 968.424 586.443 941.049 584.562 938.963C582.743 936.945 579.071 936.477 576.52 935.861C615.754 879.734 669.355 815.527 730.897 783.764C727.477 789.631 724.002 796.026 726.006 803.039C726.556 804.961 727.502 806.664 728.488 808.391C720.114 813.437 711.517 818.415 703.608 824.167C670.905 847.954 645.915 880.67 629.381 917.38C628.865 916.734 628.37 916.586 627.635 916.238Z"/>
	<path fill="#D6D6CA" d="M1001.35 1024C1001.47 1011.87 1001.29 999.853 999.909 987.79C994.229 938.344 973.605 887.097 938.362 851.277C905.309 817.682 862.661 799.623 815.576 799.57C767.775 799.516 723.703 821.977 690.466 855.473C655.364 890.85 632.666 936.259 617.319 983.23C617.385 976.371 621.46 966.904 623.271 960.119C626.371 948.503 629.572 936.602 634.033 925.426C645.405 896.935 664.58 871.102 686.372 849.75C721.515 815.143 768.992 795.955 818.312 796.423C865.223 796.946 907.878 816.261 940.527 849.707C976.594 886.655 996.963 938.121 1002.29 989.008C1003.52 1000.71 1003.62 1012.25 1003.55 1024L1001.35 1024Z"/>
	<path fill="#FBF8F0" d="M578.977 872.086C580.098 868.167 580.601 863.653 582.398 860.021C583.257 860.424 582.923 860.221 583.717 860.788C583.906 860.923 584.092 861.062 584.28 861.2C589.228 858.878 603.901 832.351 606.841 826.376C607.493 836.117 584.467 863 578.977 872.086Z"/>
	<path fill="#D6D6CA" d="M886.598 845.662L885.934 847.454C850.013 828.826 810.797 824.536 772.062 836.942C762.417 840.031 753.691 844.65 744.458 848.67L743.939 847.984C742.986 847.934 742.275 848.074 741.345 848.253C755.1 839.235 773.976 833.389 790.03 830.213C817.514 824.782 845.992 827.639 871.849 838.421C876.828 840.494 882.107 842.67 886.598 845.662Z"/>
	<path fill="#102638" d="M744.458 848.67C753.691 844.65 762.417 840.031 772.062 836.942C810.797 824.536 850.013 828.826 885.934 847.454C917.837 866.259 940.661 895.014 955.95 928.418C939.889 913.051 921.188 898.646 900.144 890.844C893.051 886.864 884.42 884.418 876.571 882.48C843.989 874.436 811.897 877.354 779.866 886.347C749.126 894.979 721.393 908.85 694.221 925.37C688.557 928.814 679.535 932.997 676.163 938.912C673.669 943.285 672.093 948.539 670.567 953.337C664.246 973.203 661.677 992.56 661.015 1013.34C711.684 971.618 776.014 951.282 841.318 952.166C840.542 934.796 838.125 918.191 834.342 901.215C832.766 894.145 830.538 887.164 829.104 880.081C855.641 879.93 872.197 882.951 897.458 892.281C904.683 895.492 911.91 898.64 918.785 902.566C928.932 908.361 948.618 922.38 955.744 931.339C957.309 933.305 958.392 935.485 959.285 937.817C968.94 963.018 972.823 990.317 972.573 1017.17L972.283 1024L969.122 1024C965.386 1020.72 961.707 1017.04 957.615 1014.23C946.807 1003.8 926.462 989.007 912.702 982.673C907.006 978.549 898.822 975.764 892.245 973.266C855.286 959.228 823.951 959.824 785.295 966.035C747.151 972.163 712.85 986.696 680.367 1007.3C674.853 1010.8 666.716 1015.08 662.713 1020.24C661.86 1021.33 661.384 1022.71 660.91 1024L653.041 1024C651.335 1005.26 653.251 984.606 657.878 966.455C666.85 931.259 685.506 895.844 712.663 871.308C722.352 862.555 733.258 855.316 744.458 848.67ZM804.014 835.176C756.544 843.289 720.605 870.433 693.257 909.108C689.173 914.853 685.471 920.86 682.175 927.09C686.112 924.017 690.084 921.137 694.224 918.343C732.647 891.786 776.586 873.157 823.233 868.354C820.613 862.471 809.087 837.283 804.014 835.176Z"/>
	<path fill="#D6D6CA" d="M682.175 927.09C685.471 920.86 689.173 914.853 693.257 909.108C720.605 870.433 756.544 843.289 804.014 835.176C809.087 837.283 820.613 862.471 823.233 868.354C776.586 873.157 732.647 891.786 694.224 918.343C690.084 921.137 686.112 924.017 682.175 927.09Z"/>
	<path fill="#FBF8F0" d="M885.934 847.454L886.598 845.662C923.521 864.573 951.952 907.317 964.443 946.097C971.099 966.764 975.013 988.929 974.805 1010.66C974.77 1014.29 974.914 1018.66 973.991 1022.12C973.992 1020.6 973.959 1019.26 973.597 1017.77L972.573 1017.17C972.823 990.317 968.94 963.018 959.285 937.817C958.392 935.485 957.309 933.305 955.744 931.339C948.618 922.38 928.932 908.361 918.785 902.566C911.91 898.64 904.683 895.492 897.458 892.281C901.443 891.273 909.794 897.924 914.051 898.916L914.062 898.353C909.713 895.366 904.377 894.402 900.074 891.434L900.144 890.844C921.188 898.646 939.889 913.051 955.95 928.418C940.661 895.014 917.837 866.259 885.934 847.454Z"/>
	<path fill="#FBF8F0" d="M651.578 1024C648.475 999.968 652.291 974.232 659.985 951.401C671.856 916.179 691.876 885.155 721.146 861.983C727.455 856.989 734.12 851.83 741.345 848.253C742.275 848.074 742.986 847.934 743.939 847.984L744.458 848.67C733.258 855.316 722.352 862.555 712.663 871.308C685.506 895.844 666.85 931.259 657.878 966.455C653.251 984.606 651.335 1005.26 653.041 1024L651.578 1024Z"/>
	<path fill="#D6D6CA" d="M900.144 890.844L900.074 891.434C904.377 894.402 909.713 895.366 914.062 898.353L914.051 898.916C909.794 897.924 901.443 891.273 897.458 892.281C872.197 882.951 855.641 879.93 829.104 880.081C830.538 887.164 832.766 894.145 834.342 901.215C838.125 918.191 840.542 934.796 841.318 952.166C776.014 951.282 711.684 971.618 661.015 1013.34C661.677 992.56 664.246 973.203 670.567 953.337C672.093 948.539 673.669 943.285 676.163 938.912C679.535 932.997 688.557 928.814 694.221 925.37C721.393 908.85 749.126 894.979 779.866 886.347C811.897 877.354 843.989 874.436 876.571 882.48C884.42 884.418 893.051 886.864 900.144 890.844Z"/>
	<path fill="#FBF8F0" d="M592.27 1024C592.806 1016.04 595.171 1007.63 597.172 999.917C604.693 970.913 615.57 943.59 627.635 916.238C628.37 916.586 628.865 916.734 629.381 917.38C624.311 930.175 619.703 943.08 614.948 955.988C606.771 978.188 598.738 1000.7 594.289 1024L592.27 1024Z"/>
	<path fill="#D6D6CA" d="M497.871 1024C499.284 1018.77 500.415 1011.03 503.653 1006.67C509.23 999.159 520.673 991.591 527.82 984.858C542.8 970.744 556.743 955.435 571.752 941.367L577.736 943.172C578.492 958.798 577.766 974.452 578.659 990.114C565.333 1001.91 551.259 1012.76 537.471 1024L497.871 1024Z"/>
	<path fill="#D6D6CA" d="M660.91 1024C661.384 1022.71 661.86 1021.33 662.713 1020.24C666.716 1015.08 674.853 1010.8 680.367 1007.3C712.85 986.696 747.151 972.163 785.295 966.035C823.951 959.824 855.286 959.228 892.245 973.266C898.822 975.764 907.006 978.549 912.702 982.673C926.462 989.007 946.807 1003.8 957.615 1014.23C961.707 1017.04 965.386 1020.72 969.122 1024L964.558 1024C961.823 1021.28 958.87 1018.83 956.287 1015.95C949.693 1011.24 943.654 1005.59 937.124 1000.73C929.247 994.879 920.796 990.147 912.353 985.188L911.491 984.864C906.129 982.802 901.156 979.548 895.844 977.294C879.139 970.208 860.224 965.818 842.148 964.339C846.263 982.57 844.444 1005.56 841.9 1024L660.91 1024Z"/>
	<path fill="#102638" d="M842.148 964.339C860.224 965.818 879.139 970.208 895.844 977.294C901.156 979.548 906.129 982.802 911.491 984.864L912.353 985.188C920.796 990.147 929.247 994.879 937.124 1000.73C943.654 1005.59 949.693 1011.24 956.287 1015.95C958.87 1018.83 961.823 1021.28 964.558 1024L841.9 1024C844.444 1005.56 846.263 982.57 842.148 964.339Z"/>
	<path fill="#FBF8F0" d="M972.573 1017.17L973.597 1017.77C973.959 1019.26 973.992 1020.6 973.991 1022.12L974.015 1024L972.283 1024L972.573 1017.17Z"/>
	<path fill="#374A58" d="M1005.5 1024C1007.37 1022.61 1020.97 1023.58 1024 1023.65L1024 1024L1005.5 1024Z"/>
</svg>
